<svg xmlns="http://www.w3.org/2000/svg" data-name="Layer 1" viewBox="0 0 100 125" x="0px" y="0px"><title>Conference</title><path d="M62.171,23.651a4.2,4.2,0,0,0-2.136.379V22.647a4.2,4.2,0,0,0-4.194-4.189,4.144,4.144,0,0,0-1.809.426,4.188,4.188,0,0,0-8.3.7A4.149,4.149,0,0,0,44,19.2,4.2,4.2,0,0,0,39.8,23.386V38.061a8.312,8.312,0,0,0-5.11-3.667,3.941,3.941,0,0,0-3.675.9c-2.153,2.508.371,5.665,1.2,6.7a21.6,21.6,0,0,1,3.595,7.223c1.045,3.067,2.126,6.239,5.648,9.456a14.76,14.76,0,0,0,1.875,1.4l-.573,23.169a1.233,1.233,0,0,0,1.2,1.262H44a1.232,1.232,0,0,0,1.233-1.2l.58-23.452a1.978,1.978,0,0,0-.961-1.742,12.212,12.212,0,0,1-1.742-1.266c-3.035-2.774-3.969-5.514-4.958-8.415a23.914,23.914,0,0,0-4-7.966c-1.38-1.725-1.8-2.923-1.279-3.533a2.156,2.156,0,0,1,1.666-.036c1.245.359,3.593,1.728,5.334,6.854.005.015.018.025.024.04a1.18,1.18,0,0,0,.128.22.715.715,0,0,0,.317.331,1.252,1.252,0,0,0,.185.125,1.27,1.27,0,0,0,.231.063,1.193,1.193,0,0,0,.235.047c.018,0,.032.01.049.01a1.137,1.137,0,0,0,.2-.041,1.083,1.083,0,0,0,.2-.024c.015,0,.025-.017.04-.023a1.212,1.212,0,0,0,.221-.128,1.3,1.3,0,0,0,.187-.126,3.768,3.768,0,0,0,.272-.381,1.193,1.193,0,0,0,.055-.2,1.214,1.214,0,0,0,.054-.268c0-.014.008-.027.008-.042V23.386a1.728,1.728,0,0,1,3.455,0V37.432a1.234,1.234,0,0,0,2.467,0V19.689a1.728,1.728,0,0,1,3.455,0V37.432a1.234,1.234,0,0,0,2.467,0V22.647a1.728,1.728,0,0,1,3.455,0V38.932a1.234,1.234,0,0,0,2.467,0V27.822a1.709,1.709,0,0,1,.566-1.277,1.743,1.743,0,0,1,1.335-.44,1.808,1.808,0,0,1,1.554,1.844V42.707c0,6.662-1.8,11.717-5.222,14.621a1.954,1.954,0,0,0-.691,1.539L58.16,83.3a1.232,1.232,0,0,0,1.233,1.2h.03a1.234,1.234,0,0,0,1.2-1.262l-.577-24.19c2.738-2.413,5.907-7.184,5.907-16.341V27.949A4.294,4.294,0,0,0,62.171,23.651Z"/><path d="M27.716,43.927a6.6,6.6,0,0,0-3.8,2.451V35.362a3.6,3.6,0,0,0-3.6-3.6,3.544,3.544,0,0,0-1.178.214,3.583,3.583,0,0,0-7.008-.557,3.561,3.561,0,0,0-1.288-.248,3.6,3.6,0,0,0-3.6,3.6v.723a3.537,3.537,0,0,0-1.486-.163A3.681,3.681,0,0,0,2.5,39.013V50.819c0,7.325,2.517,11.2,4.723,13.182L6.764,83.238a1.232,1.232,0,0,0,1.2,1.262H8a1.233,1.233,0,0,0,1.234-1.2L9.7,63.755a1.813,1.813,0,0,0-.644-1.428c-2.673-2.273-4.087-6.253-4.087-11.508V39.013a1.2,1.2,0,0,1,1.02-1.23,1.15,1.15,0,0,1,.879.288,1.121,1.121,0,0,1,.372.84V47.8a1.234,1.234,0,0,0,2.467,0V34.771a1.135,1.135,0,0,1,2.27,0V46.6a1.234,1.234,0,0,0,2.467,0V32.405a1.136,1.136,0,0,1,2.271,0V46.6a1.234,1.234,0,0,0,2.467,0V35.362a1.136,1.136,0,0,1,2.271,0v15.97c0,.015.008.027.008.042a1.206,1.206,0,0,0,.055.267,1.165,1.165,0,0,0,.054.2,4.19,4.19,0,0,0,.273.382,1.209,1.209,0,0,0,.186.125,1.156,1.156,0,0,0,.221.128c.015.006.025.018.04.024a1.267,1.267,0,0,0,.2.025,1.15,1.15,0,0,0,.194.039c.016,0,.029-.008.045-.009a1.144,1.144,0,0,0,.254-.051,1.213,1.213,0,0,0,.213-.058,1.239,1.239,0,0,0,.192-.129,1.273,1.273,0,0,0,.189-.144,1.147,1.147,0,0,0,.122-.181,1.194,1.194,0,0,0,.131-.224c.005-.015.018-.025.023-.04,1.3-3.841,3.03-4.953,3.943-5.275a2.538,2.538,0,0,1,.837-.152,1.829,1.829,0,0,1,.38.035c.458.531-.437,1.814-1.009,2.531a19.343,19.343,0,0,0-3.244,6.447c-.815,2.39-1.518,4.454-3.88,6.612a9.4,9.4,0,0,1-1.372,1,1.835,1.835,0,0,0-.892,1.608L19.082,83.3a1.232,1.232,0,0,0,1.233,1.2h.03a1.233,1.233,0,0,0,1.2-1.262l-.457-18.395a11.957,11.957,0,0,0,1.434-1.083,16.156,16.156,0,0,0,4.57-7.653,17.064,17.064,0,0,1,2.836-5.7c1.864-2.332,2.185-4.243.953-5.673A3.365,3.365,0,0,0,27.716,43.927Z"/><path d="M97.5,39.013a3.681,3.681,0,0,0-3.252-3.682,3.516,3.516,0,0,0-1.486.164v-.724a3.6,3.6,0,0,0-3.6-3.6,3.561,3.561,0,0,0-1.288.248,3.583,3.583,0,0,0-7.008.557,3.544,3.544,0,0,0-1.178-.214,3.6,3.6,0,0,0-3.6,3.6V46.378a6.6,6.6,0,0,0-3.8-2.451,3.363,3.363,0,0,0-3.167.8c-1.234,1.432-.913,3.343.951,5.675a17.064,17.064,0,0,1,2.836,5.7,16.182,16.182,0,0,0,4.589,7.671,12.032,12.032,0,0,0,1.415,1.065l-.457,18.395a1.233,1.233,0,0,0,1.2,1.262h.03a1.232,1.232,0,0,0,1.233-1.2l.466-18.769a1.829,1.829,0,0,0-.891-1.6,9.547,9.547,0,0,1-1.354-.984c-2.381-2.176-3.084-4.24-3.9-6.63A19.343,19.343,0,0,0,72,48.866c-.572-.717-1.467-2-1.071-2.472a1.74,1.74,0,0,1,1.279.058c.913.322,2.639,1.434,3.943,5.275,0,.015.018.025.023.04a1.569,1.569,0,0,0,.634.678,1.213,1.213,0,0,0,.213.058,1.144,1.144,0,0,0,.254.051c.016,0,.029.009.045.009a1.15,1.15,0,0,0,.194-.039,1.267,1.267,0,0,0,.2-.025c.015-.006.025-.018.04-.024a3.408,3.408,0,0,0,.407-.254,1.132,1.132,0,0,0,.136-.178,1.218,1.218,0,0,0,.137-.2,1.2,1.2,0,0,0,.054-.2,1.218,1.218,0,0,0,.055-.267c0-.015.008-.028.008-.042V35.362a1.136,1.136,0,0,1,2.271,0V46.6a1.234,1.234,0,0,0,2.467,0V32.405a1.136,1.136,0,0,1,2.271,0V46.6a1.234,1.234,0,0,0,2.467,0V34.771a1.135,1.135,0,0,1,2.27,0V47.8a1.234,1.234,0,0,0,2.467,0V38.911a1.121,1.121,0,0,1,.372-.84,1.135,1.135,0,0,1,.879-.288,1.2,1.2,0,0,1,1.02,1.23V50.819c0,5.255-1.414,9.235-4.09,11.511a1.809,1.809,0,0,0-.641,1.424L90.769,83.3A1.233,1.233,0,0,0,92,84.5h.03a1.232,1.232,0,0,0,1.2-1.262L92.777,64c2.208-1.987,4.723-5.86,4.723-13.182Z"/></svg>
