<svg xmlns:dc="http://purl.org/dc/elements/1.1/" xmlns:cc="http://creativecommons.org/ns#" xmlns:rdf="http://www.w3.org/1999/02/22-rdf-syntax-ns#" xmlns:svg="http://www.w3.org/2000/svg" xmlns="http://www.w3.org/2000/svg" xmlns:sodipodi="http://sodipodi.sourceforge.net/DTD/sodipodi-0.dtd" xmlns:inkscape="http://www.inkscape.org/namespaces/inkscape" viewBox="0 0 16.933333 21.1666675" version="1.1" x="0px" y="0px"><g transform="translate(0,-280.06665)"><path style="color:#000000;font-style:normal;font-variant:normal;font-weight:normal;font-stretch:normal;font-size:medium;line-height:normal;font-family:sans-serif;font-variant-ligatures:normal;font-variant-position:normal;font-variant-caps:normal;font-variant-numeric:normal;font-variant-alternates:normal;font-feature-settings:normal;text-indent:0;text-align:start;text-decoration:none;text-decoration-line:none;text-decoration-style:solid;text-decoration-color:#000000;letter-spacing:normal;word-spacing:normal;text-transform:none;writing-mode:lr-tb;direction:ltr;text-orientation:mixed;dominant-baseline:auto;baseline-shift:baseline;text-anchor:start;white-space:normal;shape-padding:0;clip-rule:nonzero;display:inline;overflow:visible;visibility:visible;opacity:1;isolation:auto;mix-blend-mode:normal;color-interpolation:sRGB;color-interpolation-filters:linearRGB;solid-color:#000000;solid-opacity:1;vector-effect:none;fill:#000000;fill-opacity:1;fill-rule:nonzero;stroke:none;stroke-width:0.5291667;stroke-linecap:round;stroke-linejoin:round;stroke-miterlimit:4;stroke-dasharray:none;stroke-dashoffset:0;stroke-opacity:1;paint-order:stroke fill markers;color-rendering:auto;image-rendering:auto;shape-rendering:auto;text-rendering:auto;enable-background:accumulate" d="m 7.8906074,280.51452 c -0.1361633,0.0126 -0.2403255,0.12681 -0.2402946,0.26355 v 0.53123 l -0.5312357,0.004 c -0.1447071,10e-4 -0.2614258,0.11884 -0.2619984,0.26355 v 0.79479 l -3.4390674,5.3e-4 c -0.1463214,-8.4e-4 -0.2655502,0.11723 -0.2661338,0.26355 v 1.5875 c -8.489e-4,0.14733 0.1188026,0.26698 0.2661338,0.26613 H 3.947178 v 1.85157 H 0.771146 c -0.14531395,5.8e-4 -0.26297063,0.11824 -0.26355149,0.26355 v 1.05833 c -5.5901e-4,0.14612 0.11742991,0.26504 0.26355149,0.26562 v 8.20105 c -8.4633e-4,0.14713 0.11848656,0.26669 0.2656152,0.26613 4.9388889,0 9.8777778,0 14.8166668,0 0.146322,-5.8e-4 0.264394,-0.11981 0.263552,-0.26613 v -8.20105 c 0.146928,5.6e-4 0.266177,-0.11869 0.265615,-0.26562 v -1.05833 c -5.84e-4,-0.14612 -0.119496,-0.26411 -0.265615,-0.26355 h -3.173968 v -1.85157 h 0.529685 c 0.146325,-5.8e-4 0.264396,-0.11982 0.263549,-0.26614 v -1.5875 c -5.75e-4,-0.14532 -0.118232,-0.26298 -0.263549,-0.26356 h -3.439584 v -0.7953 c -6.56e-4,-0.14607 -0.1195477,-0.26398 -0.2656172,-0.26342 h -0.529683 v -0.52916 c -5.809e-4,-0.14531 -0.1182375,-0.26297 -0.2635515,-0.26355 -0.3600077,-0.002 -0.7258355,-0.004 -1.0836543,-0.006 z m 0.2888721,0.53123 0.5291666,0.002 v 0.52916 c -5.341e-4,0.14691 0.1187067,0.26613 0.2656152,0.26557 h 0.5296853 v 0.52968 H 8.9742613 c -0.1461231,-5.6e-4 -0.2650365,0.11744 -0.2656152,0.26356 v 0.52503 l -0.5291666,-0.006 v -0.51728 -5.3e-4 c 3.733e-4,-0.13879 -0.1065439,-0.25428 -0.244946,-0.26459 -0.187973,-4.7e-4 -0.3852993,0.002 -0.5477642,0.003 v -0.53537 l 0.5312357,-0.004 c 0.1453116,-0.002 0.2620473,-0.1203 0.2614824,-0.26562 z m -0.5291667,1.85739 v 0.51366 c -5.649e-4,0.14532 0.1161708,0.2639 0.2614824,0.26562 l 1.0588493,0.0114 c 0.1465882,10e-4 0.2663941,-0.11661 0.2671683,-0.2632 v -0.52917 h 3.9692662 v 1.05833 H 3.6815627 v -1.05833 c 1.3229173,6.7e-4 2.6458335,0.004 3.9687501,0.002 z m -3.1739682,1.58633 h 7.9375004 v 11.37656 h -1.324467 v -2.64635 c -5.86e-4,-0.14531 -0.11824,-0.26296 -0.263549,-0.26354 H 6.0643632 c -0.00912,-4.7e-4 -0.018266,-4.7e-4 -0.02739,0 -0.1353412,0.0136 -0.238356,0.12752 -0.2382282,0.26354 v 2.64635 H 4.4763446 c 0,-3.79219 0,-7.58437 0,-11.37656 z m 0.7673949,0.52917 c -0.1353412,0.0136 -0.238356,0.12752 -0.2382282,0.26354 v 2.64635 c 5.754e-4,0.14532 0.1182337,0.26298 0.2635515,0.26356 h 6.3500002 c 0.146123,5.6e-4 0.265036,-0.11744 0.265615,-0.26356 v -2.64635 c -5.9e-4,-0.14612 -0.1195,-0.2641 -0.265615,-0.26354 H 5.2690628 c -0.00844,-4e-4 -0.016886,-4e-4 -0.025321,0 z m 0.2914571,0.52709 h 1.0562643 v 0.7953 H 5.5351966 Z m 1.5854309,0 h 1.058852 v 0.7953 h -1.058852 z m 1.5880186,0 h 1.0588497 v 0.7953 H 8.7086461 Z m 1.5880159,0 h 1.058334 v 0.7953 H 10.296662 Z M 1.0367612,286.8702 H 3.947178 v 0.52917 H 1.0367612 Z m 4.4984354,0 h 1.0562643 v 0.79272 H 5.5351966 Z m 1.5854309,0 h 1.058852 v 0.79272 h -1.058852 z m 1.5880186,0 h 1.0588497 v 0.79272 H 8.7086461 Z m 1.5880159,0 h 1.058334 v 0.79272 h -1.058334 z m 2.64635,0 h 2.910416 v 0.52917 H 12.943012 Z M 1.3003126,287.92853 H 3.947178 v 4.76199 H 1.3003126 Z m 11.6426994,0 h 2.644801 v 4.76199 h -2.644801 z m 0.502811,0.52917 c -1.77e-4,1.8e-4 -3.53e-4,3.5e-4 -5.29e-4,5.3e-4 -0.135336,0.0136 -0.238343,0.12753 -0.238215,0.26354 v 3.17551 c 5.79e-4,0.14612 0.119494,0.26412 0.265618,0.26356 h 1.585431 c 0.146124,5.6e-4 0.265039,-0.11744 0.265618,-0.26356 v -3.17551 c -5.84e-4,-0.14612 -0.119498,-0.26411 -0.265618,-0.26355 h -1.585431 c -0.0089,-6.3e-4 -0.01791,-8.1e-4 -0.02687,-5.3e-4 z m -11.6411484,5.3e-4 c -0.1353412,0.0136 -0.238356,0.12752 -0.2382282,0.26354 v 3.17551 c 5.754e-4,0.14532 0.1182321,0.26298 0.2635489,0.26356 h 1.588016 c 0.1453178,-5.8e-4 0.262976,-0.11824 0.2635514,-0.26356 v -3.17551 c -5.809e-4,-0.14531 -0.1182375,-0.26297 -0.2635514,-0.26355 h -1.588016 c -0.00844,-4e-4 -0.016885,-4e-4 -0.025321,0 z m 3.4643882,0.26354 c -0.1461216,5.8e-4 -0.2641105,0.1195 -0.2635515,0.26562 v 3.17345 c -8.418e-4,0.14632 0.1172298,0.26555 0.2635515,0.26613 h 6.3500002 c 0.147129,5.6e-4 0.266461,-0.119 0.265615,-0.26613 v -3.17345 c 5.62e-4,-0.14693 -0.118687,-0.26618 -0.265615,-0.26562 z m -3.1734497,0.26562 h 0.2635488 v 1.05626 H 2.0956131 Z m 0.7927156,0 h 0.2635488 v 1.05626 H 2.8883287 Z m 10.8479173,0 h 0.265618 v 1.05626 h -0.265618 z m 0.792715,0 h 0.265618 v 1.05626 h -0.265618 z m -8.9937644,0.26354 h 1.0562643 v 1.05885 H 5.5351966 Z m 1.5854309,0 h 1.058852 v 1.05885 h -1.058852 z m 1.5880186,0 h 1.0588497 v 1.05885 H 8.7086461 Z m 1.5880159,0 h 1.058334 v 1.05885 h -1.058334 z m -8.2010489,1.32241 h 0.2635488 v 1.05833 H 2.0956131 Z m 0.7927156,0 h 0.2635488 v 1.05833 H 2.8883287 Z m 10.8479173,0 h 0.265618 v 1.05833 h -0.265618 z m 0.792715,0 h 0.265618 v 1.05833 h -0.265618 z m -8.9937644,0.26561 h 1.0562643 v 1.05833 H 5.5351966 Z m 1.5854309,0 h 1.058852 v 1.05833 h -1.058852 z m 1.5880186,0 h 1.0588497 v 1.05833 H 8.7086461 Z m 1.5880159,0 h 1.058334 v 1.05833 h -1.058334 z m -8.9963494,2.38073 H 3.947178 v 2.64635 H 1.3003126 Z m 11.6426994,0 h 2.644801 v 2.64635 h -2.644801 z m -6.6151,0.26355 h 1.8515675 v 2.3828 H 6.327912 Z m 2.3807341,0 h 1.8515649 v 2.3828 H 8.7086461 Z m -6.3494842,0.26562 v 0.52968 H 1.8299953 v 0.52917 h 0.5291666 v 0.52917 h 0.5291668 v -0.52917 h 0.5296826 v -0.52917 H 2.8883287 v -0.52968 z m 11.6427021,0 v 0.52968 h -0.529167 v 0.52917 h 0.529167 v 0.52917 h 0.527097 v -0.52917 h 0.529167 v -0.52917 h -0.529167 v -0.52968 z m -6.6151027,0.79324 v 0.52916 H 7.915928 v -0.52916 z m 1.5875,0 v 0.52916 h 0.5296853 v -0.52916 z"/></g></svg>
