<svg xmlns="http://www.w3.org/2000/svg" xmlns:xlink="http://www.w3.org/1999/xlink" version="1.1" x="0px" y="0px" viewBox="0 0 100 125" enable-background="new 0 0 100 100" xml:space="preserve"><g><g><path d="M88.4,42.4c-0.5-0.5-1.1-0.9-1.8-1.1l1.2-1.2c2.4-2.5,2.3-6.5-0.1-8.8c-0.8-0.7-1.8-1.2-2.9-1.4c0.1-0.4,0.1-0.8,0.1-1.2    c0-1.7-0.6-3.3-1.8-4.4c-1.8-1.7-4.4-2-6.6-1c-0.3-0.8-0.8-1.6-1.4-2.3c-2.4-2.3-6.4-2.1-8.8,0.4l-5,5.3l-0.5-0.5    c-2.6-2.6-6-4-9.7-4c-1.3,0-2.5,0.2-3.7,0.5c-1.4-2.3-3.9-3.8-6.7-3.8c-4.3,0-7.8,3.5-7.8,7.8c0,2.2,0.9,4.2,2.4,5.6l-4,4    c-1.9,1.9-3.2,4.3-3.7,7C26,44.6,17.8,51.1,15.3,55c-4.6,7.4-6.4,14.2-5.1,20.1c1.4,6.6,5.7,12.4,11.6,15.5    c3.2,1.7,6.7,2.5,10.3,2.5c2.3,0,4.6-0.3,6.9-1c4.5-1.4,8.2-4.9,11.4-8c0.1-0.1,0.2-0.2,0.3-0.3c1.3,1,3.4,2.2,5.7,2.3    c1.5,0,2.9-0.4,4.1-1.3c1.4,1.1,3.6,2.4,6.3,2.4c1,0,2.2-0.2,3.3-0.7c5.6-2.3,6.6-7.1,5.6-11.3c1.2-1.1,2.8-3.1,2.9-5.9l2.9-2.9    c2.6-2.6,4-6,4-9.7c0-0.7-0.1-1.4-0.2-2.1l3.1-3.2C90.8,48.7,90.8,44.7,88.4,42.4z M85,34.2c0.8,0.7,0.7,2.2-0.1,3.1l-5.2,5.5    c0,0,0,0,0,0l-1,1.1L75.7,41l4.2-4.4c0,0,0,0,0.1-0.1l1.9-2C82.7,33.6,84.2,33.5,85,34.2z M75.2,29.7    C75.3,29.7,75.3,29.7,75.2,29.7l2.1-2.3c0.4-0.4,1-0.7,1.6-0.7c0.3,0,1,0,1.5,0.5s0.6,1.1,0.5,1.4c0,0.6-0.2,1.2-0.7,1.7l-7.5,7.9    L70,35.3L75.2,29.7z M69.3,24.1c0.8-0.9,2.3-1,3.1-0.3c0.8,0.7,0.7,2.2-0.1,3.1L72,27.3c0,0,0,0,0,0l-4.9,5.1l-2.9-2.9L69.3,24.1z     M40.8,22.9c1.2,0,2.3,0.6,3,1.4c0.5,0.7,0.9,1.5,0.9,2.4c0,2.1-1.7,3.8-3.8,3.8c-1,0-1.9-0.4-2.6-1.1c-0.7-0.7-1.2-1.7-1.2-2.8    C36.9,24.7,38.6,22.9,40.8,22.9z M50.4,78.5c-1,0.9-1.9,1.8-2.9,2.7c-3,2.9-6.2,6-9.8,7.1c-4.7,1.5-9.9,1-14.1-1.2    c-4.8-2.5-8.4-7.3-9.5-12.8c-1.3-6.1,1.8-12.7,4.6-17.2c1.7-2.7,7.4-7.5,10.5-10c0.7,0.4,1.6,1.3,2.2,2.6c0.1,0.3-0.1,1.7-1.1,2.7    c-2,2.2-5.9,5.5-5.9,5.5c-0.8,0.7-0.9,2-0.2,2.8c0.7,0.8,2,0.9,2.8,0.2c0.1-0.1,2.2-1.9,4.2-3.8c0.1-0.1,0.3-0.2,0.4-0.3l1.6-1.6    c0,0,0,0,0,0c0,0,0,0,0,0l16.2-17.1c0.5-0.5,1.3-0.8,2-0.7c0.4,0,0.8,0.2,1.1,0.5c0.8,0.7,0.7,2.2-0.1,3.1L52,41.3c0,0,0,0,0,0    l-2.1,2.2L38.1,56c-0.8,0.8-0.7,2.1,0.1,2.8c0.4,0.4,0.9,0.5,1.4,0.5c0.5,0,1.1-0.2,1.5-0.6l14.2-15c0,0,0,0,0,0l2.1-2.3    c0.4-0.4,1-0.7,1.6-0.7c0.1,0,0.2,0,0.4,0c0.3,0,0.8,0.1,1.1,0.5c0.5,0.5,0.6,1.1,0.5,1.4c0,0.6-0.2,1.2-0.7,1.7l-1,1.1L44.6,61    c-0.8,0.8-0.7,2.1,0.1,2.8c0.4,0.4,0.9,0.5,1.4,0.5c0.5,0,1.1-0.2,1.5-0.6l12.4-13.1c0,0,0,0,0.1-0.1l1.9-2    c0.6-0.6,1.5-0.9,2.2-0.7c0.3,0.1,0.6,0.2,0.9,0.4c0.5,0.5,0.6,1.3,0.5,2c-0.1,0.4-0.3,0.8-0.6,1.1l-5.2,5.5c0,0,0,0,0,0l-1.9,2    c0,0,0,0,0,0l-8.1,8.5c-0.8,0.8-0.7,2.1,0.1,2.8c0.4,0.4,0.9,0.5,1.4,0.5c0.5,0,1.1-0.2,1.5-0.6l10-10.6c0.4-0.4,1-0.7,1.6-0.7    c0.3,0,1,0,1.5,0.5c0.5,0.5,0.6,1.1,0.5,1.4c0,0.6-0.2,1.2-0.7,1.7L50.4,78.5z M72.4,72.7L71,73.5l0.5,1.5c0.1,0.3,0.2,0.7,0.3,1    c1,3.9-1.1,5.8-3.2,6.7c-3.4,1.4-6.5-1.9-6.6-2l-0.1-0.1L60.5,79l-1.2,1.3L59,80.6c-0.8,0.9-1.7,1.3-2.6,1.3c0,0,0,0,0,0    c-1,0-2-0.5-2.8-1l1.7-1.8l2.9-3.1l10.2-10.8c0,0,0,0,0,0c4.6,0.1,5.7,1.5,6,2.5c0.1,0.3,0.1,0.5,0.1,0.7    C75,70.9,72.5,72.6,72.4,72.7z M81.4,58.2c-0.3,2-1.3,3.8-2.7,5.2l-1.3,1.3c-1.3-2-3.8-3.1-7.3-3.5c0.1-1.8-0.4-3.6-1.8-4.8    c-0.5-0.5-1.1-0.9-1.8-1.1l1.2-1.2c1.6-1.7,2.1-4.1,1.5-6.2c-0.3-1-0.8-1.8-1.5-2.6c-0.3-0.3-0.6-0.5-0.9-0.7    c-0.6-0.4-1.2-0.6-1.9-0.7c0.1-0.4,0.1-0.8,0.1-1.2c0-0.6-0.1-1.3-0.3-1.9c-0.3-1-0.8-1.9-1.5-2.5c-0.3-0.3-0.6-0.5-0.9-0.7    c-1.5-0.9-3.4-1.1-5.1-0.6c-0.2,0.1-0.4,0.1-0.6,0.2c-0.3-0.8-0.8-1.6-1.4-2.3c-0.3-0.3-0.6-0.5-0.9-0.7c-2.4-1.5-5.8-1.1-7.8,1.1    L34.8,47.7c-0.9-1.8-2.2-3-3.3-3.8c0.4-1.8,1.3-3.4,2.6-4.7l4.9-4.9c0.6,0.1,1.2,0.2,1.8,0.2c4.3,0,7.8-3.5,7.8-7.8    c0-0.1,0-0.2,0-0.2c0.8-0.2,1.7-0.4,2.6-0.4c2.6,0,5.1,1,6.9,2.8l0.6,0.6l2.8,2.8l2.9,2.9l2.8,2.8l2.9,2.9l2.8,2.8l2.9,2.9    l2.8,2.8l0,0c1,1,1.8,2.3,2.3,3.6c0.4,1,0.6,2.2,0.6,3.3C81.6,57.1,81.5,57.7,81.4,58.2z M85.6,48.4L84,50.1    c-0.6-1.2-1.4-2.3-2.4-3.3l-0.1-0.1l1.1-1.2c0.8-0.9,2.3-1,3.1-0.3C86.4,46,86.4,47.6,85.6,48.4z"/><path d="M52.8,18.7c3.3,0,5.9-2.7,5.9-5.9c0-3.3-2.7-5.9-5.9-5.9s-5.9,2.7-5.9,5.9C46.9,16,49.5,18.7,52.8,18.7z M52.8,10.9    c1.1,0,1.9,0.9,1.9,1.9s-0.9,1.9-1.9,1.9s-1.9-0.9-1.9-1.9S51.7,10.9,52.8,10.9z"/></g></g></svg>
