<svg xmlns="http://www.w3.org/2000/svg" xmlns:xlink="http://www.w3.org/1999/xlink" version="1.1" x="0px" y="0px" viewBox="0 0 24 30" enable-background="new 0 0 24 24" xml:space="preserve"><title>medical mask</title><desc>Created with Sketch.</desc><path d="M18.213,9.7c-0.154-0.206-0.811-1.053-0.979-1.278c-0.817-1.09-1.349-1.987-1.765-3.098C14.832,3.63,13.602,2.5,12,2.5  c-1.593,0-2.842,1.156-3.468,2.824C8.115,6.435,7.584,7.332,6.767,8.422C6.598,8.647,5.942,9.495,5.788,9.7  C4.538,11.366,4,12.635,4,14.5c0,9.166,16,9.166,16,0C20,12.635,19.463,11.366,18.213,9.7z M10.026,5.842  c0.652-1.956,3.296-1.956,3.949,0c0.087,0.262-0.055,0.545-0.316,0.632c-0.262,0.087-0.545-0.054-0.633-0.316  c-0.348-1.044-1.703-1.044-2.051,0c-0.087,0.262-0.37,0.403-0.632,0.316C10.08,6.387,9.938,6.104,10.026,5.842z M9.5,11h5  c0.276,0,0.5,0.224,0.5,0.5S14.776,12,14.5,12h-5C9.224,12,9,11.776,9,11.5S9.224,11,9.5,11z M6.5,16C6.224,16,6,15.328,6,14.5  S6.224,13,6.5,13S7,13.672,7,14.5S6.776,16,6.5,16z M14.5,18h-5C9.224,18,9,17.776,9,17.5S9.224,17,9.5,17h5  c0.276,0,0.5,0.224,0.5,0.5S14.776,18,14.5,18z M15.5,15h-7C8.224,15,8,14.776,8,14.5S8.224,14,8.5,14h7c0.276,0,0.5,0.224,0.5,0.5  S15.776,15,15.5,15z M17.5,16c-0.276,0-0.5-0.672-0.5-1.5s0.224-1.5,0.5-1.5s0.5,0.672,0.5,1.5S17.776,16,17.5,16z"/><path d="M5.751,14.084c-0.121-0.039-0.044-0.004-0.538-0.231c-0.645-0.296-1.12-0.415-1.763-0.351  c-0.247,0.025-0.469,0.064-0.731,0.121c-0.681,0.15-0.703,0.152-0.805,0.076c-0.019-0.014-0.039-0.031-0.061-0.053  c-1.043-1.043,1.725-3.715,5.208-4.15L6.938,8.504c-4.15,0.519-7.698,3.943-5.792,5.85c0.056,0.056,0.112,0.105,0.171,0.148  c0.452,0.336,0.587,0.326,1.617,0.098c0.227-0.05,0.412-0.082,0.615-0.102c0.433-0.044,0.749,0.035,1.247,0.264  c0.568,0.261,0.47,0.217,0.652,0.275C5.887,15.176,5.955,14.148,5.751,14.084z"/><path d="M18.466,13.853c0.645-0.296,1.12-0.415,1.763-0.351c0.247,0.025,0.469,0.064,0.731,0.121  c0.681,0.15,0.702,0.152,0.806,0.076c0.018-0.014,0.038-0.031,0.061-0.053c0.932-0.932-1.18-3.165-4.125-3.94  c-0.351-0.092-0.96-1.203-0.96-1.203c4.149,0.519,7.698,3.943,5.792,5.85c-0.057,0.056-0.113,0.105-0.172,0.148  c-0.451,0.336-0.587,0.326-1.617,0.098c-0.227-0.05-0.412-0.082-0.615-0.102c-0.432-0.044-0.748,0.035-1.246,0.264  c-0.568,0.261-0.471,0.217-0.652,0.275C17.99,15.113,17.972,14.08,18.466,13.853z"/></svg>
