<svg xmlns="http://www.w3.org/2000/svg" xmlns:xlink="http://www.w3.org/1999/xlink" version="1.1" x="0px" y="0px" viewBox="0 0 64 80" enable-background="new 0 0 64 64" xml:space="preserve"><g><path d="M57,4.496H7c-3.859,0-7,3.141-7,7v3.998v13.998v9.003c0,3.859,3.141,7,7,7h2.001v13.009c0,0.014,0.007,0.025,0.008,0.039   c0.003,0.064,0.023,0.127,0.039,0.191c0.016,0.066,0.026,0.134,0.056,0.194c0.006,0.013,0.005,0.025,0.011,0.037   c0.022,0.043,0.06,0.069,0.087,0.108c0.041,0.058,0.079,0.115,0.132,0.163c0.05,0.046,0.105,0.076,0.162,0.109   c0.053,0.032,0.102,0.065,0.16,0.088c0.07,0.025,0.143,0.033,0.217,0.043c0.044,0.006,0.083,0.026,0.129,0.026   c0.013,0,0.023-0.007,0.036-0.008c0.067-0.002,0.132-0.023,0.199-0.04c0.065-0.016,0.131-0.026,0.189-0.055   c0.013-0.006,0.025-0.005,0.037-0.011l1.474-0.768l1.586,0.778c0.277,0.137,0.603,0.136,0.88,0.001l1.599-0.783l1.549,0.778   c0.282,0.143,0.614,0.142,0.896,0.001l1.553-0.777l1.553,0.777c0.281,0.141,0.613,0.141,0.895,0L24,58.621l1.553,0.777   c0.281,0.141,0.613,0.141,0.895,0L28,58.621l1.553,0.777c0.281,0.141,0.613,0.141,0.895,0L32,58.621l1.552,0.777   c0.281,0.141,0.613,0.141,0.895,0l1.553-0.777l1.554,0.777c0.281,0.141,0.613,0.141,0.895,0L40,58.621l1.553,0.777   c0.281,0.141,0.613,0.141,0.895,0L44,58.621l1.553,0.777c0.281,0.141,0.613,0.141,0.895,0l1.552-0.777l1.553,0.777   c0.281,0.141,0.613,0.141,0.895,0l1.553-0.777l1.553,0.777c0.009,0.004,0.019,0.002,0.027,0.007   c0.127,0.059,0.265,0.097,0.413,0.098c0.002,0,0.004,0.001,0.006,0.001c0,0,0,0,0.001,0l0,0c0.001,0,0.001,0,0.002,0   c0.118-0.001,0.232-0.029,0.342-0.069c0.031-0.012,0.06-0.024,0.089-0.038c0.086-0.042,0.163-0.094,0.234-0.158   c0.016-0.015,0.034-0.024,0.049-0.039c0.069-0.072,0.131-0.153,0.179-0.248c0.005-0.01,0.004-0.021,0.008-0.03   c0.027-0.059,0.036-0.125,0.052-0.19s0.038-0.13,0.04-0.196c0-0.011,0.006-0.02,0.006-0.03V45.495H57c3.859,0,7-3.141,7-7v-9.003   V15.494v-3.998C64,7.637,60.859,4.496,57,4.496z M8,39.495h1.001v0.999H8V39.495z M51.552,56.608l-1.553,0.777l-1.553-0.777   c-0.281-0.141-0.613-0.141-0.895,0L46,57.386l-1.553-0.777c-0.281-0.141-0.613-0.141-0.895,0L42,57.386l-1.553-0.777   c-0.281-0.141-0.613-0.141-0.895,0L38,57.386l-1.554-0.777c-0.281-0.141-0.613-0.141-0.895,0l-1.553,0.777l-1.552-0.777   c-0.281-0.141-0.613-0.141-0.895,0L30,57.386l-1.553-0.777c-0.281-0.141-0.613-0.141-0.895,0L26,57.386l-1.553-0.777   c-0.281-0.141-0.613-0.141-0.895,0l-1.554,0.777l-1.553-0.777c-0.281-0.141-0.613-0.141-0.895,0L18,57.385l-1.544-0.775   c-0.28-0.141-0.608-0.142-0.889-0.005l-1.604,0.786l-1.6-0.785c-0.286-0.141-0.621-0.136-0.902,0.011l-0.46,0.239v-17.36h41.998   v17.39l-0.553-0.276C52.165,56.468,51.833,56.468,51.552,56.608z M56,39.495v0.999h-1.001v-0.999H56z M62,38.495   c0,2.757-2.243,5-5,5h-2.001v-1.001H57c0.553,0,1-0.447,1-1v-2.999c0-0.553-0.447-1-1-1h-2.981c-0.007,0-0.013-0.004-0.02-0.004   s-0.013,0.004-0.02,0.004H10.021c-0.007,0-0.013-0.004-0.02-0.004s-0.013,0.004-0.02,0.004H7c-0.553,0-1,0.447-1,1v2.999   c0,0.553,0.447,1,1,1h2.001v1.001H7c-2.757,0-5-2.243-5-5v-4.113c1.271,1.3,3.042,2.11,5,2.11h50c1.958,0,3.729-0.811,5-2.11   V38.495z M62,15.494v13.998c0,2.757-2.243,5-5,5H7c-2.757,0-5-2.243-5-5V15.494v-3.998c0-2.757,2.243-5,5-5h50c2.757,0,5,2.243,5,5   V15.494z"/><path d="M41.404,23.82c0.369-1.042,0.58-2.157,0.58-3.324c0-5.514-4.486-10-10-10s-10,4.486-10,10c0,1.167,0.211,2.282,0.58,3.324   c0.012,0.034,0.021,0.066,0.036,0.099c0.44,1.202,1.102,2.294,1.939,3.23c0.024,0.027,0.045,0.055,0.071,0.079   c1.83,2.002,4.453,3.268,7.373,3.268s5.543-1.266,7.373-3.268c0.026-0.024,0.047-0.052,0.071-0.079   c0.838-0.937,1.499-2.028,1.939-3.23C41.383,23.887,41.393,23.854,41.404,23.82z M38.218,25.498H25.751   c-0.254-0.315-0.48-0.651-0.685-1.003h13.836C38.698,24.847,38.472,25.183,38.218,25.498z M24.247,22.495   c-0.084-0.326-0.15-0.658-0.193-0.999h15.861c-0.043,0.341-0.109,0.673-0.193,0.999H24.247z M31.984,12.496   c4.072,0,7.436,3.061,7.931,7H24.054C24.549,15.557,27.912,12.496,31.984,12.496z M28.123,27.498h7.723   c-1.146,0.635-2.462,0.998-3.861,0.998S29.269,28.133,28.123,27.498z"/></g></svg>
