<svg xmlns="http://www.w3.org/2000/svg" xmlns:xlink="http://www.w3.org/1999/xlink" viewBox="0 0 24 30" version="1.1" x="0px" y="0px"><title>medical mask</title><desc>Created with Sketch.</desc><g stroke="none" stroke-width="1" fill="none" fill-rule="evenodd"><path d="M4,14.5 C4,23.6666667 20,23.6666667 20,14.5 C20,12.6348295 19.4622912,11.3663883 18.2125,9.7 C18.0583477,9.4944636 17.4020977,8.64724138 17.2333333,8.42222222 C16.4157531,7.33211518 15.8847268,6.43527084 15.4681646,5.32443828 C14.8327772,3.63007192 13.6019471,2.5 12,2.5 C10.4072353,2.5 9.15745795,3.65611151 8.53183541,5.32443828 C8.1152732,6.43527084 7.58424694,7.33211518 6.76666667,8.42222222 C6.5979023,8.64724138 5.9416523,9.4944636 5.7875,9.7 C4.5377088,11.3663883 4,12.6348295 4,14.5 Z M5,14.5 C5,12.8844012 5.4560412,11.8086117 6.5875,10.3 C6.73543103,10.1027586 7.39168103,9.2555364 7.56666667,9.02222222 C8.43658639,7.86232926 9.01351468,6.88796148 9.46816459,5.67556172 C9.96200791,4.35864619 10.8902199,3.5 12,3.5 C13.1209552,3.5 14.0284528,4.33320799 14.5318354,5.67556172 C14.9864853,6.88796148 15.5634136,7.86232926 16.4333333,9.02222222 C16.608319,9.2555364 17.264569,10.1027586 17.4125,10.3 C18.5439588,11.8086117 19,12.8844012 19,14.5 C19,22.3333333 5,22.3333333 5,14.5 Z" fill="#000000" fill-rule="nonzero"/><path d="M6.5,16 C6.77614237,16 7,15.3284271 7,14.5 C7,13.6715729 6.77614237,13 6.5,13 C6.22385763,13 6,13.6715729 6,14.5 C6,15.3284271 6.22385763,16 6.5,16 Z M6.5,15 C6.78141897,15 6.97898839,15.1212857 7.09078903,15.2631487 C7.11179966,15.289809 7.10703957,15.2801614 7.09512991,15.2444324 C7.03843076,15.074335 7,14.8017534 7,14.5 C7,14.1982466 7.03843076,13.925665 7.09512991,13.7555676 C7.10703957,13.7198386 7.11179966,13.710191 7.09078903,13.7368513 C6.97898839,13.8787143 6.78141897,14 6.5,14 C6.21858103,14 6.02101161,13.8787143 5.90921097,13.7368513 C5.88820034,13.710191 5.89296043,13.7198386 5.90487009,13.7555676 C5.96156924,13.925665 6,14.1982466 6,14.5 C6,14.8017534 5.96156924,15.074335 5.90487009,15.2444324 C5.89296043,15.2801614 5.88820034,15.289809 5.90921097,15.2631487 C6.02101161,15.1212857 6.21858103,15 6.5,15 Z" fill="#000000" fill-rule="nonzero"/><path d="M17.5,16 C17.7761424,16 18,15.3284271 18,14.5 C18,13.6715729 17.7761424,13 17.5,13 C17.2238576,13 17,13.6715729 17,14.5 C17,15.3284271 17.2238576,16 17.5,16 Z M17.5,15 C17.781419,15 17.9789884,15.1212857 18.090789,15.2631487 C18.1117997,15.289809 18.1070396,15.2801614 18.0951299,15.2444324 C18.0384308,15.074335 18,14.8017534 18,14.5 C18,14.1982466 18.0384308,13.925665 18.0951299,13.7555676 C18.1070396,13.7198386 18.1117997,13.710191 18.090789,13.7368513 C17.9789884,13.8787143 17.781419,14 17.5,14 C17.218581,14 17.0210116,13.8787143 16.909211,13.7368513 C16.8882003,13.710191 16.8929604,13.7198386 16.9048701,13.7555676 C16.9615692,13.925665 17,14.1982466 17,14.5 C17,14.8017534 16.9615692,15.074335 16.9048701,15.2444324 C16.8929604,15.2801614 16.8882003,15.289809 16.909211,15.2631487 C17.0210116,15.1212857 17.218581,15 17.5,15 Z" fill="#000000" fill-rule="nonzero"/><path d="M9.5,18 L14.5,18 C14.7761424,18 15,17.7761424 15,17.5 C15,17.2238576 14.7761424,17 14.5,17 L9.5,17 C9.22385763,17 9,17.2238576 9,17.5 C9,17.7761424 9.22385763,18 9.5,18 Z" fill="#000000" fill-rule="nonzero"/><path d="M8.5,15 L15.5,15 C15.7761424,15 16,14.7761424 16,14.5 C16,14.2238576 15.7761424,14 15.5,14 L8.5,14 C8.22385763,14 8,14.2238576 8,14.5 C8,14.7761424 8.22385763,15 8.5,15 Z" fill="#000000" fill-rule="nonzero"/><path d="M9.5,12 L14.5,12 C14.7761424,12 15,11.7761424 15,11.5 C15,11.2238576 14.7761424,11 14.5,11 L9.5,11 C9.22385763,11 9,11.2238576 9,11.5 C9,11.7761424 9.22385763,12 9.5,12 Z" fill="#000000" fill-rule="nonzero"/><path d="M10.9743416,6.15811388 C11.3223923,5.11396204 12.6776077,5.11396204 13.0256584,6.15811388 C13.1129822,6.42008554 13.3961422,6.56166554 13.6581139,6.47434165 C13.9200855,6.38701776 14.0616655,6.10385778 13.9743416,5.84188612 C13.3223923,3.88603796 10.6776077,3.88603796 10.0256584,5.84188612 C9.93833446,6.10385778 10.0799145,6.38701776 10.3418861,6.47434165 C10.6038578,6.56166554 10.8870178,6.42008554 10.9743416,6.15811388 Z" fill="#000000" fill-rule="nonzero"/><path d="M6.2763932,14.0527864 C6.0954902,14.1432379 5.9544507,14.1485148 5.75145491,14.0839236 C5.63018337,14.0453362 5.70737475,14.0795106 5.21313196,13.8527647 C4.56885708,13.557188 4.09341346,13.4381649 3.45024814,13.5024814 C3.20350949,13.5271553 2.98111992,13.5656901 2.71927293,13.6236201 C2.03879429,13.7741666 2.01678143,13.775708 1.9138935,13.6993716 C1.8953009,13.6855771 1.87523076,13.668124 1.85355339,13.6464466 C0.810078872,12.6029721 3.57828414,9.93160559 7.06201737,9.49613894 L6.93798263,8.50386106 C2.78789417,9.02262212 -0.760358641,12.4467481 1.14644661,14.3535534 C1.20193435,14.4090411 1.25896128,14.4586321 1.3180456,14.5024689 C1.76956527,14.8374682 1.90475107,14.8280022 2.93528586,14.6000106 C3.16172579,14.5499139 3.34722551,14.5177712 3.54975186,14.4975186 C3.98232206,14.4542616 4.29870846,14.5334661 4.79614609,14.7616777 C5.36451289,15.0224298 5.26634547,14.9789688 5.44824442,15.0368472 C5.88716908,15.1765085 6.29557743,15.1612283 6.7236068,14.9472136 L6.2763932,14.0527864 Z" fill="#000000" fill-rule="nonzero"/><path d="M22.2763932,14.0527864 C22.0954902,14.1432379 21.9544507,14.1485148 21.7514549,14.0839236 C21.6301834,14.0453362 21.7073748,14.0795106 21.213132,13.8527647 C20.5688571,13.557188 20.0934135,13.4381649 19.4502481,13.5024814 C19.2035095,13.5271553 18.9811199,13.5656901 18.7192729,13.6236201 C18.0387943,13.7741666 18.0167814,13.775708 17.9138935,13.6993716 C17.8953009,13.6855771 17.8752308,13.668124 17.8535534,13.6464466 C16.8100789,12.6029721 19.5782841,9.93160559 23.0620174,9.49613894 L22.9379826,8.50386106 C18.7878942,9.02262212 15.2396414,12.4467481 17.1464466,14.3535534 C17.2019343,14.4090411 17.2589613,14.4586321 17.3180456,14.5024689 C17.7695653,14.8374682 17.9047511,14.8280022 18.9352859,14.6000106 C19.1617258,14.5499139 19.3472255,14.5177712 19.5497519,14.4975186 C19.9823221,14.4542616 20.2987085,14.5334661 20.7961461,14.7616777 C21.3645129,15.0224298 21.2663455,14.9789688 21.4482444,15.0368472 C21.8871691,15.1765085 22.2955774,15.1612283 22.7236068,14.9472136 L22.2763932,14.0527864 Z" fill="#000000" fill-rule="nonzero" transform="translate(19.839533, 11.815728) scale(-1, 1) translate(-19.839533, -11.815728) "/></g></svg>
