<svg xmlns="http://www.w3.org/2000/svg" xmlns:xlink="http://www.w3.org/1999/xlink" version="1.1" x="0px" y="0px" viewBox="0 0 128 160" style="enable-background:new 0 0 128 128;" xml:space="preserve"><style type="text/css">
	.st0{display:none;}
	.st1{display:inline;}
	.st2{fill:none;stroke:#000000;stroke-width:0.1;stroke-miterlimit:10;}
</style><g class="st0"><g class="st1"><rect class="st2" width="128" height="128"/><line class="st2" x1="0" y1="124" x2="128" y2="124"/><line class="st2" x1="0" y1="120" x2="128" y2="120"/><line class="st2" x1="0" y1="116" x2="128" y2="116"/><line class="st2" x1="0" y1="112" x2="128" y2="112"/><line class="st2" x1="0" y1="108" x2="128" y2="108"/><line class="st2" x1="0" y1="104" x2="128" y2="104"/><line class="st2" x1="0" y1="100" x2="128" y2="100"/><line class="st2" x1="0" y1="96" x2="128" y2="96"/><line class="st2" x1="0" y1="92" x2="128" y2="92"/><line class="st2" x1="0" y1="88" x2="128" y2="88"/><line class="st2" x1="0" y1="84" x2="128" y2="84"/><line class="st2" x1="0" y1="80" x2="128" y2="80"/><line class="st2" x1="0" y1="76" x2="128" y2="76"/><line class="st2" x1="0" y1="72" x2="128" y2="72"/><line class="st2" x1="0" y1="68" x2="128" y2="68"/><line class="st2" x1="0" y1="64" x2="128" y2="64"/><line class="st2" x1="0" y1="60" x2="128" y2="60"/><line class="st2" x1="0" y1="56" x2="128" y2="56"/><line class="st2" x1="0" y1="52" x2="128" y2="52"/><line class="st2" x1="0" y1="48" x2="128" y2="48"/><line class="st2" x1="0" y1="44" x2="128" y2="44"/><line class="st2" x1="0" y1="40" x2="128" y2="40"/><line class="st2" x1="0" y1="36" x2="128" y2="36"/><line class="st2" x1="0" y1="32" x2="128" y2="32"/><line class="st2" x1="0" y1="28" x2="128" y2="28"/><line class="st2" x1="0" y1="24" x2="128" y2="24"/><line class="st2" x1="0" y1="20" x2="128" y2="20"/><line class="st2" x1="0" y1="16" x2="128" y2="16"/><line class="st2" x1="0" y1="12" x2="128" y2="12"/><line class="st2" x1="0" y1="8" x2="128" y2="8"/><line class="st2" x1="0" y1="4" x2="128" y2="4"/><line class="st2" x1="124" y1="0" x2="124" y2="128"/><line class="st2" x1="120" y1="0" x2="120" y2="128"/><line class="st2" x1="116" y1="0" x2="116" y2="128"/><line class="st2" x1="112" y1="0" x2="112" y2="128"/><line class="st2" x1="108" y1="0" x2="108" y2="128"/><line class="st2" x1="104" y1="0" x2="104" y2="128"/><line class="st2" x1="100" y1="0" x2="100" y2="128"/><line class="st2" x1="96" y1="0" x2="96" y2="128"/><line class="st2" x1="92" y1="0" x2="92" y2="128"/><line class="st2" x1="88" y1="0" x2="88" y2="128"/><line class="st2" x1="84" y1="0" x2="84" y2="128"/><line class="st2" x1="80" y1="0" x2="80" y2="128"/><line class="st2" x1="76" y1="0" x2="76" y2="128"/><line class="st2" x1="72" y1="0" x2="72" y2="128"/><line class="st2" x1="68" y1="0" x2="68" y2="128"/><line class="st2" x1="64" y1="0" x2="64" y2="128"/><line class="st2" x1="60" y1="0" x2="60" y2="128"/><line class="st2" x1="56" y1="0" x2="56" y2="128"/><line class="st2" x1="52" y1="0" x2="52" y2="128"/><line class="st2" x1="48" y1="0" x2="48" y2="128"/><line class="st2" x1="44" y1="0" x2="44" y2="128"/><line class="st2" x1="40" y1="0" x2="40" y2="128"/><line class="st2" x1="36" y1="0" x2="36" y2="128"/><line class="st2" x1="32" y1="0" x2="32" y2="128"/><line class="st2" x1="28" y1="0" x2="28" y2="128"/><line class="st2" x1="24" y1="0" x2="24" y2="128"/><line class="st2" x1="20" y1="0" x2="20" y2="128"/><line class="st2" x1="16" y1="0" x2="16" y2="128"/><line class="st2" x1="12" y1="0" x2="12" y2="128"/><line class="st2" x1="8" y1="0" x2="8" y2="128"/><line class="st2" x1="4" y1="0" x2="4" y2="128"/></g></g><g><g><path d="M16.1,105.2h31.3l1.5-0.1H79v0.1h32.8v-1.5c0-9.1-7.4-16.4-16.4-16.4c-4.9,0-9.4,2.1-12.5,5.7    c-3.8-6.5-10.7-10.6-18.4-10.6c-8,0-15.3,4.5-18.9,11.5c-2.9-3.9-7.4-6.3-12.3-6.6C39.3,86.9,43.9,82,43.9,76    c0-6.3-5.1-11.4-11.4-11.4c-6.3,0-11.4,5.1-11.4,11.4c0,6,4.7,10.9,10.6,11.3c-8.7,0.4-15.7,7.6-15.7,16.4V105.2z M24.2,76    c0-4.6,3.8-8.4,8.4-8.4c4.6,0,8.4,3.8,8.4,8.4c0,4.6-3.8,8.4-8.4,8.4C28,84.4,24.2,80.6,24.2,76z M32.5,90.3c5.1,0,9.8,3,12.1,7.6    l1.6,3.2l1.2-3.4c2.5-7.3,9.5-12.2,17.2-12.2c7.3,0,13.9,4.3,16.8,11l1.1,2.6l1.5-2.4c2.5-4,6.7-6.4,11.4-6.4    c6.9,0,12.6,5.2,13.3,11.9H82v-0.1H47.5l-1.5,0.1H19.2C20,95.5,25.7,90.3,32.5,90.3z"/><path d="M95.5,87.3c6.3,0,11.4-5.1,11.4-11.4c0-6.3-5.1-11.4-11.4-11.4s-11.4,5.1-11.4,11.4C84.1,82.2,89.2,87.3,95.5,87.3z     M95.5,67.5c4.6,0,8.4,3.8,8.4,8.4c0,4.6-3.8,8.4-8.4,8.4s-8.4-3.8-8.4-8.4C87.1,71.3,90.8,67.5,95.5,67.5z"/><path d="M52.3,69.8c0,6.8,5.5,12.3,12.3,12.3c6.8,0,12.3-5.5,12.3-12.3c0-6.8-5.5-12.3-12.3-12.3C57.8,57.5,52.3,63,52.3,69.8z     M73.9,69.8c0,5.1-4.2,9.3-9.3,9.3c-5.1,0-9.3-4.2-9.3-9.3c0-5.1,4.2-9.3,9.3-9.3C69.7,60.5,73.9,64.7,73.9,69.8z"/><path d="M83.6,35.4c0-10.8-8.8-19.6-19.6-19.6s-19.6,8.8-19.6,19.6S53.2,54.9,64,54.9S83.6,46.2,83.6,35.4z M64,51.9    c-9.1,0-16.6-7.4-16.6-16.6S54.9,18.8,64,18.8s16.6,7.4,16.6,16.6S73.1,51.9,64,51.9z"/><path d="M75.6,31.1h-7.8v-7.8c0-0.8-0.7-1.5-1.5-1.5h-4.6c-0.8,0-1.5,0.7-1.5,1.5v7.8h-7.8c-0.8,0-1.5,0.7-1.5,1.5v4.6    c0,0.8,0.7,1.5,1.5,1.5h7.8v7.8c0,0.8,0.7,1.5,1.5,1.5h4.6c0.8,0,1.5-0.7,1.5-1.5v-7.8h7.8c0.8,0,1.5-0.7,1.5-1.5v-4.6    C77.1,31.8,76.4,31.1,75.6,31.1z M74.1,35.7h-7.8c-0.8,0-1.5,0.7-1.5,1.5V45h-1.6v-7.8c0-0.8-0.7-1.5-1.5-1.5h-7.8v-1.6h7.8    c0.8,0,1.5-0.7,1.5-1.5v-7.8h1.6v7.8c0,0.8,0.7,1.5,1.5,1.5h7.8V35.7z"/></g></g></svg>
