<svg xmlns="http://www.w3.org/2000/svg" xmlns:xlink="http://www.w3.org/1999/xlink" version="1.1" x="0px" y="0px" viewBox="0 0 100 125" enable-background="new 0 0 100 100" xml:space="preserve"><path d="M75.959,40.718v-5.601c0-1.147-0.824-2.106-1.912-2.313c-0.457-3.676-4.424-5.253-8.607-6.917  c-5.443-2.165-11.074-4.404-10.262-11.374l0.006-4.932c0-1.105-0.379-2.151-1.066-2.945c-0.719-0.83-1.682-1.288-2.713-1.288h-3.375  c-2.084,0-3.779,1.899-3.779,4.242l0.052,4.834l0.006,0.092c0.846,7.255-4.761,9.563-10.183,11.796  c-3.896,1.604-7.591,3.126-8.051,6.491c-1.09,0.206-1.917,1.165-1.917,2.314v5.601c0,0.938,0.562,1.762,1.372,2.139v7.788  c-0.87,0.347-1.486,1.197-1.486,2.189v5.601c0,0.992,0.616,1.843,1.486,2.189v8.429c-0.87,0.348-1.486,1.196-1.486,2.189v5.601  c0,0.992,0.616,1.843,1.486,2.189v5.879v0.003v0.609c0,1.952,2.796,4.221,7.481,6.067c2.899,1.144,8.97,3.062,17.049,3.062  c8.083,0,14.154-1.952,17.054-3.115c4.68-1.88,7.475-4.183,7.475-6.163l0.002-0.535c0-0.049,0-0.096,0-0.139  c0.002-0.067,0.002-0.126,0.002-0.171c0-0.169,0-0.359,0-0.443c0-0.024,0-0.05-0.004-0.072v-5.09  c0.752-0.401,1.258-1.198,1.258-2.081v-5.601c0-0.884-0.506-1.679-1.258-2.08v-8.646c0.752-0.401,1.258-1.197,1.258-2.081v-5.601  c0-0.884-0.506-1.68-1.258-2.081v-7.896C75.398,42.479,75.959,41.655,75.959,40.718z M27.267,69.466v-9.255h45.581v9.255H27.267z   M73.488,59.631H26.397c-0.66,0-1.196-0.537-1.196-1.196v-5.601c0-0.659,0.536-1.196,1.196-1.196h47.091  c0.66,0,1.197,0.537,1.197,1.196v5.601C74.686,59.094,74.148,59.631,73.488,59.631z M27.267,51.059v-8.564h45.581v8.564H27.267z   M73.604,33.921c0.66,0,1.195,0.537,1.195,1.196v5.601c0,0.659-0.535,1.196-1.195,1.196H26.511c-0.66,0-1.196-0.537-1.196-1.196  v-5.601c0-0.659,0.536-1.196,1.196-1.196H73.604z M26.397,78.039c-0.66,0-1.196-0.537-1.196-1.196v-5.601  c0-0.659,0.536-1.196,1.196-1.196h47.091c0.66,0,1.197,0.537,1.197,1.196v5.601c0,0.659-0.537,1.196-1.197,1.196H26.397z   M48.029,7.088h3.375c0.52,0,1.014,0.243,1.398,0.686c0.414,0.479,0.641,1.12,0.641,1.808v4.541h-7.407l-0.048-4.541  C45.989,8.206,46.904,7.088,48.029,7.088z M34.787,27.92c5.372-2.212,12.032-4.961,11.283-13.218h7.344  c-0.707,7.986,5.984,10.654,11.383,12.801c3.969,1.579,7.406,2.947,7.547,5.838H27.771C27.916,30.75,31.104,29.436,34.787,27.92z   M72.848,85.374c0,0.768-1.732,2.682-6.385,4.549c-2.783,1.117-8.613,2.99-16.406,2.99c-7.792,0-13.626-1.843-16.411-2.94  c-4.648-1.833-6.379-3.7-6.379-4.449v-0.656c0.005-0.078,0.011-0.175,0-0.278v-5.971h45.581v6.22v0.043V85.374z"/></svg>
