<svg xmlns="http://www.w3.org/2000/svg" data-name="Layer 1" viewBox="0 0 64 80" x="0px" y="0px"><title>Coronavirus</title><path d="M53.674,41.5c-3.424-5.89-6.739-16.486-5.88-21.322.518-2.914-1.014-7.137-3.811-10.508A17.984,17.984,0,0,0,30.245,3h-.194a17.459,17.459,0,0,0-14.67,8H8.81a1,1,0,0,0-1,1V38a1,1,0,0,0,1,1c.033,0,.066,0,.1-.005l7.214-.721a4.977,4.977,0,0,0,2.57.726H21.97a1,1,0,0,0,.334.211,1.573,1.573,0,0,1,1,.884c.814,1.877-.951,5.9-1.906,8.075a108.12,108.12,0,0,0-3.95,11.576A1,1,0,0,0,18.416,61H54.81a1,1,0,0,0,.948-.684A21.85,21.85,0,0,0,53.674,41.5ZM9.81,13h22v2h-22Zm6.861,23.209a2.98,2.98,0,0,1-.824-1.261L13.54,28.029a2.983,2.983,0,0,1,.725-3.07l1.9-1.9,10.282,1.468c.229,3.05-.886,6.732-3.317,11C22.989,35.551,16.671,36.209,16.671,36.209ZM21.171,17a8.91,8.91,0,0,1,4.872,5.451l-9.4-1.342a20.4,20.4,0,0,1-.4-4.109Zm6.212,3.408A10.809,10.809,0,0,0,24.708,17h6.873L28.9,29.892A7.01,7.01,0,0,1,26,34.374C28.732,28.8,29.2,24.112,27.383,20.408ZM9.81,17h4.442a22.409,22.409,0,0,0,.463,4.681l-1.864,1.864a4.973,4.973,0,0,0-1.208,5.117l2.306,6.919a5.116,5.116,0,0,0,.39.861L9.81,36.9ZM54.078,59H19.737a103.19,103.19,0,0,1,3.5-10.04c1.221-2.78,3.065-6.983,1.9-9.661a3.473,3.473,0,0,0-1.086-1.4c.121-.2.23-.388.346-.582a9.034,9.034,0,0,0,6.468-7.043L33.789,16.2c.006-.03-.005-.061,0-.091A.856.856,0,0,0,33.81,16V12a1,1,0,0,0-1-1h-15a15.148,15.148,0,0,1,12.24-6h.178a16.007,16.007,0,0,1,12.218,5.943c2.806,3.382,3.72,6.975,3.381,8.881-.946,5.327,2.45,16.366,6.12,22.678C55.134,47.986,55.818,53.247,54.078,59Z"/></svg>
