<svg xmlns="http://www.w3.org/2000/svg" xmlns:xlink="http://www.w3.org/1999/xlink" version="1.1" x="0px" y="0px" viewBox="0 0 100 125" style="enable-background:new 0 0 100 100;" xml:space="preserve"><path d="M51.414,47.138c0.307,0,0.61-0.141,0.807-0.408l6.251-8.499l6.251,8.499c0.196,0.267,0.499,0.408,0.807,0.408  c0.206,0,0.413-0.063,0.592-0.194c0.267-0.196,0.408-0.5,0.407-0.808c0-0.205-0.063-0.413-0.194-0.591l-6.617-8.996  c1.197-1.631,4.16-5.943,4.16-8.672c0-2.981-2.425-5.406-5.406-5.406s-5.406,2.425-5.406,5.406c0,2.937,2.937,7.091,4.152,8.685  l-6.608,8.983c-0.131,0.178-0.194,0.386-0.194,0.591c0,0.308,0.141,0.611,0.407,0.808C51.001,47.075,51.208,47.138,51.414,47.138z   M58.472,24.471c1.878,0,3.406,1.528,3.406,3.406c0,1.771-2.044,5.049-3.421,7c-1.372-1.882-3.391-5.068-3.391-7  C55.066,25.999,56.594,24.471,58.472,24.471z"/><path d="M39.352,35.805h0.199c2.152,0,3.903,1.743,3.903,3.885c0,2.143-1.751,3.885-3.903,3.885s-3.902-1.743-3.902-3.885  c0-0.552-0.448-1-1-1s-1,0.448-1,1c0,2.835,2.022,5.208,4.703,5.763V46.7c0,0.552,0.448,1,1,1s1-0.448,1-1v-1.185  c2.876-0.392,5.102-2.851,5.102-5.825c0-3.245-2.648-5.885-5.903-5.885h-0.199c-2.152,0-3.902-1.743-3.902-3.885  c0-2.143,1.75-3.885,3.902-3.885s3.903,1.743,3.903,3.885c0,0.552,0.448,1,1,1s1-0.448,1-1c0-2.905-2.123-5.318-4.903-5.794v-1.216  c0-0.552-0.448-1-1-1s-1,0.448-1,1v1.216c-2.779,0.476-4.902,2.89-4.902,5.794C33.45,33.165,36.098,35.805,39.352,35.805z"/><path d="M79.078,15.471H20.67c-0.552,0-1,0.448-1,1v36.667c0,0.552,0.448,1,1,1h58.408c0.552,0,1-0.448,1-1V16.471  C80.078,15.919,79.63,15.471,79.078,15.471z M78.078,52.138H21.67V17.471h56.408V52.138z"/><path d="M85.14,58.429V15.248c0-2.909-2.391-5.276-5.329-5.276H19.936c-2.938,0-5.329,2.367-5.329,5.276v43.185L9.964,86.13  c-0.154,0.954,0.117,1.925,0.746,2.664c0.637,0.749,1.569,1.178,2.557,1.178h73.447c0.993,0,1.927-0.433,2.564-1.187  c0.628-0.745,0.896-1.721,0.732-2.685L85.14,58.429z M16.607,15.248c0-1.807,1.494-3.276,3.329-3.276h59.875  c1.835,0,3.329,1.47,3.329,3.276v42.269H16.607V15.248z M87.749,87.494c-0.256,0.303-0.634,0.478-1.036,0.478H13.266  c-0.4,0-0.777-0.173-1.033-0.474c-0.251-0.295-0.356-0.667-0.295-1.042l4.516-26.939h66.847l4.738,26.923  C88.104,86.821,88.001,87.195,87.749,87.494z"/><path d="M79.078,64.244H20.67c-0.505,0-0.931,0.376-0.993,0.877l-2.096,17c-0.035,0.285,0.054,0.57,0.244,0.785  c0.19,0.214,0.462,0.337,0.749,0.337h62.768c0.288,0,0.562-0.125,0.752-0.341s0.277-0.505,0.239-0.791l-2.264-17  C80.003,64.615,79.579,64.244,79.078,64.244z M79.068,72.744H65.52l-0.636-6.5h13.319L79.068,72.744z M48.958,74.744v6.5H35.013  l0.637-6.5H48.958z M35.845,72.744l0.637-6.5h12.476v6.5H35.845z M50.958,74.744h12.748l0.636,6.5H50.958V74.744z M50.958,72.744  v-6.5h11.916l0.636,6.5H50.958z M34.473,66.244l-0.637,6.5H20.753l0.801-6.5H34.473z M20.506,74.744H33.64l-0.637,6.5H19.705  L20.506,74.744z M66.352,81.244l-0.636-6.5h13.619l0.866,6.5H66.352z"/></svg>
