<svg xmlns="http://www.w3.org/2000/svg" xmlns:xlink="http://www.w3.org/1999/xlink" version="1.1" x="0px" y="0px" viewBox="0 0 98 122.5" enable-background="new 0 0 98 98" xml:space="preserve"><g><rect x="64.4128" y="31.8217" width="1.9592" height="1.9592"/><rect x="64.4128" y="43.5768" width="1.9592" height="1.9592"/><rect x="64.4128" y="35.7401" width="1.9592" height="1.9592"/><rect x="64.4128" y="39.6584" width="1.9592" height="1.9592"/><rect x="64.4128" y="47.4952" width="1.9592" height="1.9592"/><path d="M62.4536,90.182c0-13.1435,0-44.7399,0-58.3603c0-3.7596-3.0584-6.8179-6.8179-6.8179h-5.7475v-5.2907h10.6062V5.6855   C60.4944,3.1017,58.3927,1,55.8088,1H9.2687C6.6858,1,4.584,3.1017,4.584,5.6855v14.0276h10.6062v5.2907H9.4428   c-3.7596,0-6.8179,3.0584-6.8179,6.8179c0,25.1389,0,8.4261,0,58.3603C2.6248,93.9416,5.6832,97,9.4428,97h46.1929   C59.3953,97,62.4536,93.9416,62.4536,90.182z M12.9259,17.7539v-7.7023h-1.9592v7.7023H6.5432V5.6855   c0-1.5033,1.2226-2.7264,2.7254-2.7264h1.698v4.2656h1.9592V2.9591h4.9047v7.7798h1.9592V2.9591h4.9056V5.544h1.9592V2.9591h4.9047   v8.8493h1.9592V2.9591h4.9056v3.4004h1.9592V2.9591h4.9047v7.0925h1.9592V2.9591h4.9056v3.0564h1.9592V2.9591h1.6971   c1.5029,0,2.7264,1.2231,2.7264,2.7264v12.0684h-4.4235V8.6382h-1.9592v9.1158c-0.3441,0-5.1585,0-4.9056,0v-4.3929h-1.9592v4.3929   h-4.9047V9.6694H38.424v8.0845h-4.9056v-3.3611h-1.9592v3.3611h-4.9047V7.9886h-1.9592v9.7653h-4.9056v-4.0351h-1.9592v4.0351   C17.7224,17.7539,12.8196,17.7539,12.9259,17.7539z M47.9291,19.7131v5.2907H17.1494v-5.2907H47.9291z M4.584,31.8217   c0-2.6791,2.1792-4.8587,4.8587-4.8587c6.6328,0,39.4573,0,46.1929,0c2.6795,0,4.8587,2.1797,4.8587,4.8587v11.4002H4.584V31.8217z    M4.584,49.9795h31.2302v21.0694H4.584V49.9795z M4.584,73.0081h33.1894V48.0204H4.584v-2.8393h55.9104v30.6663H4.584V73.0081z    M4.584,90.182V77.8066h55.9104V90.182c0,2.679-2.1792,4.8587-4.8587,4.8587H9.4428C6.7632,95.0408,4.584,92.8611,4.584,90.182z"/><path d="M56.5818,80.6937l-1.9592-0.001l-0.0038,6.4774c-0.001,1.0992-0.8954,1.9931-1.9946,1.9931h-4.9927v1.9592h4.9927   c2.1792,0,3.9528-1.7726,3.9538-3.9514L56.5818,80.6937z"/><rect x="54.635" y="55.1119" width="1.9592" height="14.7317"/><rect x="54.6432" y="48.9999" width="1.9592" height="3.1354"/><rect x="14.7215" y="54.1323" width="17.0261" height="1.9592"/><rect x="8.6497" y="54.1323" width="3.6983" height="1.9592"/><rect x="28.3277" y="59.5349" width="3.42" height="1.9592"/><rect x="8.6497" y="59.5349" width="17.0501" height="1.9592"/><rect x="14.8918" y="64.937" width="16.8559" height="1.9592"/><rect x="8.6497" y="64.937" width="3.6983" height="1.9592"/><path d="M80.5081,68.1962c3.4975-3.4974,3.4975-9.1875,0-12.6849c-3.5026-3.5046-9.18-3.5059-12.684,0   c-3.4974,3.4974-3.4974,9.1875,0,12.6849C71.3267,71.7008,77.0042,71.7021,80.5081,68.1962z M69.2094,56.8965   c2.4898-2.4898,6.3955-2.7312,9.165-0.6409l-9.8054,9.8058C66.5043,63.3168,66.7127,59.3936,69.2094,56.8965z M79.7595,57.6409   c2.0688,2.7448,1.8617,6.6715-0.6365,9.1702c-2.4981,2.4981-6.4082,2.7259-9.1702,0.637L79.7595,57.6409z"/><path d="M91.6787,51.7015c2.9436-2.9436,2.9436-7.7334,0-10.6775c-2.9485-2.9505-7.7258-2.9522-10.6779,0   c-2.9436,2.944-2.9436,7.7339,0,10.6775C83.9508,54.6515,88.7285,54.6537,91.6787,51.7015z M82.386,42.4092   c1.9137-1.9137,4.914-2.1882,7.1452-0.6267l-7.7692,7.7692C80.2441,47.373,80.4445,44.3516,82.386,42.4092z M83.1444,50.9397   l7.7698-7.7698c1.5211,2.1793,1.322,5.2032-0.6207,7.1464C88.3717,52.2381,85.37,52.5,83.1444,50.9397z"/><path d="M92.4632,70.386c-2.6943-2.6953-7.0586-2.6953-9.7529,0L71.8487,81.2471c-2.6881,2.6891-2.6881,7.0638,0,9.7529   c2.6937,2.6937,7.0571,2.6967,9.7529,0l10.8616-10.8611C95.1513,77.4497,95.1513,73.0751,92.4632,70.386z M80.2164,89.6148   c-1.9292,1.9292-5.0519,1.9296-6.9825,0c-1.9247-1.9252-1.9247-5.0572,0-6.9825l4.7381-4.7379l6.9826,6.9823L80.2164,89.6148z    M91.078,78.7536l-4.7381,4.7379l-6.9826-6.9823l4.7383-4.7381c1.9287-1.9288,5.0523-1.9301,6.9825,0   C93.0027,73.6964,93.0027,76.8284,91.078,78.7536z"/><rect x="82.5639" y="12.0888" width="1.9247" height="1.9592"/><rect x="70.8089" y="12.0888" width="1.9592" height="1.9592"/><rect x="74.7272" y="12.0888" width="1.9592" height="1.9592"/><rect x="78.6456" y="12.0888" width="1.9592" height="1.9592"/><rect x="89.5311" y="26.2383" width="1.9592" height="1.9592"/><rect x="81.6944" y="26.2383" width="1.9592" height="1.9592"/><rect x="85.6128" y="26.2383" width="1.9592" height="1.9592"/><rect x="93.4494" y="26.2383" width="1.9257" height="1.9592"/></g></svg>
