<svg xmlns="http://www.w3.org/2000/svg" xmlns:xlink="http://www.w3.org/1999/xlink" xmlns:xodm="http://www.corel.com/coreldraw/odm/2003" xml:space="preserve" version="1.1" style="shape-rendering:geometricPrecision;text-rendering:geometricPrecision;image-rendering:optimizeQuality;" viewBox="0 0 37557.24 36866.774999999994" x="0px" y="0px" fill-rule="evenodd" clip-rule="evenodd"><defs><style type="text/css">

    .fil0 {fill:black;fill-rule:nonzero}

  </style></defs><g><path class="fil0" d="M29790.12 10163.61c-40.76,214.54 -30.76,411.19 26.66,662.1 1011.66,559.28 2648.16,992.3 3807.31,898.36 811.12,-65.74 1391.76,-363.79 1702.42,-750.03 285.97,-355.55 344.3,-790.41 108.56,-1189.62 -397.96,-673.91 -1275.21,-862.79 -1985.44,-1020.38 -716.34,-158.94 -1472.22,-326.66 -2246.39,-656.8 -1665.78,-710.36 -2735.98,-1146.33 -3745.62,-1441.94 -2481.04,-726.42 -4624.24,-383.55 -6974.72,-1774.99 -1004.84,-594.85 -1815.72,-1381.59 -2260.64,-2298.38 -170.72,-351.78 -287.47,-541.5 -570.91,-257.66 -1782.31,1785.06 -3793.76,3550.41 -6030.45,4731.15 -224.72,118.62 -133.29,330.51 84.64,406.36 520.44,202.55 1023.5,940.06 1327.47,1399.84 868.82,-210.78 1738.86,-369.43 2837.42,-295.28 2090.91,141.12 4129.32,952.54 6232.4,1082.61 1200.67,74.25 2348.96,-189.13 3614.45,6.9 2364.36,366.27 2265.18,2912.06 190.54,3590.97 -673.58,220.43 -1558.98,247.71 -2490.83,276.42 -1065.32,32.83 -2193.74,67.71 -3092.84,402.8 -380.49,398.17 -352.95,1134.33 -137.81,1951.3 527.8,2004.28 2233.31,4805.57 3730.94,6284.2 617.06,609.23 1598.02,1293.16 2478.18,1906.82 781.77,545.05 1485.43,1035.66 1807.74,1385.45 286.68,311.13 436.34,631.17 477.85,928.38 126.22,151.81 254.14,302.62 374.31,442.7 541.45,631.21 1521.99,1729.68 2411.51,1021.12 204.19,-162.61 406.08,-403.74 443.41,-705.44 35.89,-290.06 -59.88,-663.8 -382.16,-1163.41 -134.2,-208.04 -566.79,-745.31 -1106.07,-1415.11 -848.01,-1053.22 -1692.77,-2120.5 -2514.82,-3194.33 -150.72,-196.85 -60.53,-92.4 -272.68,-27.4 -64.05,19.63 -132.06,25.26 -199.83,13.29 -215.78,-37.67 -158.5,-365.77 57.29,-328.1 175.86,-71.63 91.3,-249.34 91.8,-332.73 0.85,-218.35 332.86,-217.06 332,1.3 -0.46,77.78 73.59,211.71 178.5,364.04 750.31,1089.46 1753.03,2260.05 2586.82,3295.61 545.86,677.96 983.73,1221.78 1126.91,1443.75 370.05,573.69 477.71,1021.59 432.93,1383.44 -20.61,166.54 -72.41,312.87 -145.38,443.45 429.3,601.77 843.78,1211.36 1594.34,1454.37 627.1,203.05 1314.47,-25.95 1526.17,-679.78 97.88,-302.3 47.59,-596.4 -76.09,-879.55 -220.88,-505.68 -739.47,-1105.85 -1086.02,-1559.33 -902.98,-1181.63 -1807.52,-2360.68 -2729.85,-3527.34 -923.31,-1167.54 -1730.69,-2188.55 -1968.29,-2836.61 -80.65,73.5 -167.29,124.22 -249.14,134.46 -158.53,19.35 -305.45,-209.11 -58.94,-326.55 158.62,-75.57 290.97,-287.09 324.23,-454.7 41.96,-214.93 368.75,-151.13 326.79,63.8 -14.49,73.03 -45.66,155.24 -87.06,236.54 -127.18,321.85 827.91,1529.62 1972.81,2977.35 923.5,1168.14 1829.64,2348.13 2733.76,3531.25 369.28,483.23 889.1,1085.13 1126.37,1628.34 130.56,298.91 194.05,611.46 132.56,938.62 1058.05,182.16 1438.36,-883.87 1085.83,-1744.51 -420.7,-1027.04 -1280.72,-2281.01 -1935.38,-3201.05 -734.14,-1031.74 -1639.15,-2070.27 -2316.31,-2912.69 -398.26,-495.45 -1550.95,-1868.13 -1781.54,-2446.3 -52.74,81.71 -114.82,152.35 -184.37,202.84 -177.25,128.44 -372.53,-141.07 -195.29,-269.5 286.42,-207.94 213.25,-650.31 279.77,-946.82 47.95,-213.21 372.13,-140.31 324.18,72.91 -53.06,236.51 -30.91,482.99 50.52,725.54 182.83,544.56 1389.03,1985.1 1758.68,2444.75 682.86,849.11 1595.37,1896.91 2335.18,2936.6 333.52,468.72 652.6,936.29 938.96,1384.13 660.61,352.38 1303.9,-211.33 1287.38,-898.08 -31.3,-1300.84 -2515.71,-4446.17 -3986.69,-6308.48 -318.45,-403.17 -590.44,-747.52 -777.98,-997.09 -112.35,-144.63 -265.84,-236.53 -453.29,-224.42 -218.36,13.7 -239.18,-318.3 -20.83,-332 24.35,-1.57 48.83,-2.09 73.39,-1.5 -898.8,-1285.85 -2074.39,-3086.21 -2490.26,-4612.1 -88.87,-326.05 -162.34,-716.93 -110.26,-1066.61 47.98,-224.33 341.28,-188.5 331.22,22.75zm3933.21 9293.36c74.49,-79.63 195.58,33.64 121.08,113.27 -53.89,57.6 -119.65,108.09 -185.8,150.81 -91.93,59.01 -181.77,-80.96 -89.83,-139.96 53.56,-34.58 110.91,-77.49 154.55,-124.12zm1715.27 2324.96c74.49,-79.63 195.58,33.64 121.08,113.27 -53.89,57.6 -119.65,108.1 -185.8,150.81 -91.93,59.01 -181.77,-80.96 -89.83,-139.96 53.55,-34.57 110.92,-77.49 154.55,-124.12zm-2464.42 534.76c78.36,-76.21 194.22,42.93 115.87,119.13 -56.33,54.68 -125.06,102.2 -192.86,141.5 -94.5,54.73 -177.82,-89.14 -83.32,-143.87 55.51,-32.17 114.18,-71.99 160.31,-116.76zm1809.96 2505.44c78.36,-76.21 194.22,42.93 115.87,119.13 -56.33,54.67 -125.06,102.2 -192.87,141.5 -94.5,54.73 -177.82,-89.14 -83.32,-143.87 55.5,-32.17 114.19,-71.99 160.32,-116.76zm-6680.75 -1485.47c78.36,-76.21 194.22,42.93 115.87,119.13 -56.32,54.67 -125.06,102.21 -192.86,141.5 -94.5,54.73 -177.82,-89.14 -83.32,-143.87 55.5,-32.17 114.19,-71.99 160.31,-116.76zm1459.57 1692.89c78.36,-76.21 194.22,42.93 115.87,119.13 -56.35,54.68 -125.04,102.18 -192.86,141.5 -94.5,54.73 -177.82,-89.14 -83.32,-143.87 55.51,-32.18 114.17,-71.99 160.31,-116.76zm3639.6 1043.54c78.36,-76.21 194.22,42.93 115.87,119.13 -56.33,54.67 -125.06,102.2 -192.86,141.5 -94.5,54.73 -177.82,-89.14 -83.32,-143.87 55.5,-32.17 114.19,-71.99 160.31,-116.76zm-14086.22 -3401.02c-108.6,189 -396.34,23.66 -287.73,-165.35 208.78,-361.62 14.87,-513.83 71.16,-775.23 45.38,-214.07 370.87,-145.07 325.49,69 -22.95,106.62 67.75,276.37 119.84,354.28 294.24,440.03 1406.82,1356.22 2373.22,2051.84 1757.3,1264.91 4091.4,2608.84 5224.16,3057.74 1155.64,457.96 1919.64,-594.52 1015.94,-1575.3 -299.77,-325.34 -988.21,-805.32 -1753.06,-1338.58 -892.01,-621.92 -1886.17,-1315.05 -2521.15,-1941.97 -1540.11,-1520.57 -3276.46,-4374.5 -3819.47,-6436.52 -176.56,-670.48 -232.32,-1301.37 -65.97,-1787.15 -370.09,220.54 -676.88,520.12 -890.43,929.28 -42.42,81.25 -142.69,112.73 -223.94,70.3 -81.25,-42.42 -112.73,-142.69 -70.3,-223.94 854.86,-1637.86 2917.46,-1701.43 4793.77,-1759.24 905.82,-27.91 1766.49,-54.43 2397.09,-260.79 1739.38,-569.19 1882.5,-2633.43 -138.46,-2946.5 -1241.52,-192.33 -2395.71,70.45 -3583.21,-3 -2109.51,-130.47 -4147.55,-941.73 -6235.01,-1082.61 -1177.38,-79.47 -2094.92,123.23 -3044.9,363.6 -2949.09,746.1 -4707.28,827.4 -7729.54,158.24 -304.21,-67.36 -927.88,-395.34 -1166.99,-304.32 867.29,691.49 418.28,3478.19 204.36,4490.02 -217.95,1030.88 -822.33,3288.03 -1737.45,3852.03 250.01,176.57 521.87,171.24 784.79,166.05 749.88,-14.79 1929.13,304.91 2716.32,440.35 2770.61,476.68 5386.05,926.67 9544.41,3419.38 3239.53,1941.9 6860.67,5517.05 10463.66,6545.85 489.58,139.77 1064.28,174.58 1309.72,-360.23 -120.81,-21.07 -245.46,-56.03 -372.56,-106.4 -1152.89,-456.87 -3519.45,-1818.2 -5295.77,-3096.8 -867.76,-624.62 -1930.77,-1514.06 -2325.13,-1976.83 -21.17,60.49 -42.71,103.24 -82.86,172.78zm-14203.56 -8199.17c-29.53,105.31 -189.68,60.42 -160.14,-44.92 167.57,-590.19 288.75,-1208.83 372.82,-1816.39 14.98,-108.31 179.68,-85.54 164.69,22.79 -85.01,614.28 -207.94,1241.81 -377.37,1838.52zm12631.88 -10727.28c75.35,-79.2 195.78,35.37 120.43,114.57 -351.07,369.2 -728.17,724.31 -1109.16,1062.46 -81.66,72.26 -191.69,-52.07 -110.01,-124.34 377.29,-334.87 751.09,-687.07 1098.74,-1052.7zm15953.88 13423.25c1496.63,1894.77 4024.34,5094.92 4058.3,6506.37 17.77,738.81 -578.63,1438.02 -1349.28,1338.77 324.66,534.45 590.39,1029.59 762.77,1450.43 462.89,1130.04 -151.32,2449.28 -1484.24,2192.37 -3.08,-0.59 -6.13,-1.27 -9.13,-2.02 -329.95,735.34 -1141.46,992.24 -1888.57,750.33 -801.29,-259.43 -1241.56,-850.28 -1699.54,-1489.58 -75.19,81.49 -137.98,138.59 -214.41,199.94 -1072.79,861.3 -2192.93,-273.22 -2871.66,-1064.47 -50.47,-58.84 -101.13,-118.12 -151.06,-176.85 -139.95,503.22 -597.19,803.39 -1109.54,828 -278.46,791.91 -1030.47,863.09 -1750.36,657.66 -3667.31,-1047.17 -7259.14,-4612.47 -10543.08,-6581 -4103.95,-2460.1 -6690.18,-2905.06 -9429.84,-3376.42 -752.21,-129.42 -1946.94,-450.39 -2653.83,-436.45 -373.35,7.37 -761.37,14.91 -1136.93,-354.81l-1897.5 -397.69c-214.07,-44.53 -146.37,-370.02 67.7,-325.49l1538.89 322.53c214.73,45 329.33,91.62 536.34,-59.48 737.55,-538.38 1322.45,-2705.61 1512.14,-3602.85 162.19,-767.12 669.12,-3863.56 -154.27,-4205.02l-1656.99 -485.39c-209.78,-60.79 -117.35,-379.77 92.44,-318.98l1488.51 436.04c390.5,-498.26 1096.8,21.96 1590.05,131.17 2939.54,650.84 4675.47,578.81 7545.1,-149.14 -243.29,-361.99 -699.86,-1017.62 -1104.81,-1175.22 -371.22,-144.48 -628.04,-585.58 -295.78,-895.14l-1631.33 -1821.16c-145.39,-162.5 102,-383.82 247.37,-221.34l1672.22 1866.8c2152.89,-1168.87 4068.91,-2843.9 5795.1,-4568.53l-1638.17 -1865.35c-143.68,-164.2 106.3,-382.93 249.98,-218.73l1637.18 1864.23c418.11,-244.58 738.1,192.64 899.39,524.99 414.87,854.88 1179.41,1593.47 2130.44,2156.47 2280.34,1349.92 4461.77,1029.17 6897.91,1742.44 1029.64,301.47 2108.08,740.55 3783.37,1454.96 748.62,319.24 1487.54,483.2 2187.81,638.57 815.5,180.95 1743.53,401.87 2200.27,1175.31 305.65,517.59 236.23,1104.53 -135.91,1567.19 -363.85,452.37 -1025.78,799.99 -1935.47,873.72 -1167.77,94.64 -2669.5,-296.19 -3723.53,-800.66 458.21,1484.48 1557.61,3166.39 2445.75,4430.82 359.58,511.92 738.53,991.85 1126.19,1482.64zm-2253.77 6425.38c78.36,-76.21 194.22,42.93 115.87,119.13 -56.33,54.67 -125.06,102.2 -192.86,141.5 -94.5,54.73 -177.82,-89.14 -83.32,-143.87 55.51,-32.17 114.19,-71.99 160.31,-116.76zm1580.96 -13281.87c33.39,-104.03 191.58,-53.27 158.19,50.78 -74.58,232.14 -206.36,458.42 -381.76,628.81 -78.36,76.21 -194.22,-42.93 -115.87,-119.13 156.74,-152.27 272.81,-353.08 339.44,-560.46z"/></g></svg>
