<svg xmlns="http://www.w3.org/2000/svg" viewBox="0 0 64 80" x="0px" y="0px" fill="red"><g><path d="M35,13V7a1,1,0,0,0-1-1H12a1,1,0,0,0-1,1v6a1,1,0,0,0,1,1H34A1,1,0,0,0,35,13Zm-2-1H13V8H33Z"/><path d="M7,18V30a1,1,0,0,0,1,1H20a1,1,0,0,0,1-1V24.242l-2,2V29H9V19h8.758l2-2H8A1,1,0,0,0,7,18Z"/><path d="M22.293,17.293,15,24.586l-2.293-2.293-1.414,1.414,3,3a1,1,0,0,0,1.414,0l8-8Z"/><path d="M7,47a1,1,0,0,0,1,1H20a1,1,0,0,0,1-1V41.242l-2,2V46H9V36h8.758l2-2H8a1,1,0,0,0-1,1Z"/><path d="M12.707,39.293l-1.414,1.414,3,3a1,1,0,0,0,1.414,0l8-8-1.414-1.414L15,41.586Z"/><rect x="26" y="24" width="13" height="2"/><rect x="26" y="19" width="13" height="2"/><rect x="26" y="36" width="6" height="2"/><rect x="26" y="41" width="6" height="2"/><path d="M4,60V4H42V25.356q1.012-.354,2-.773V3a1,1,0,0,0-1-1H3A1,1,0,0,0,2,3V61a1,1,0,0,0,1,1H43a.987.987,0,0,0,.308-.062A24.3,24.3,0,0,1,40.606,60Z"/><path d="M61.109,29.006A34.916,34.916,0,0,1,48.47,25.117a1,1,0,0,0-.94,0,34.916,34.916,0,0,1-12.639,3.889A1,1,0,0,0,34,30V41.845A21.818,21.818,0,0,0,47.615,61.923a1,1,0,0,0,.77,0A21.818,21.818,0,0,0,62,41.845V30A1,1,0,0,0,61.109,29.006ZM60,41.845A19.808,19.808,0,0,1,48,59.912,19.808,19.808,0,0,1,36,41.845V30.885a36.882,36.882,0,0,0,12-3.756,36.874,36.874,0,0,0,12,3.756Z"/><path d="M39.707,41.293l-1.414,1.414,6,6a1,1,0,0,0,1.414,0l12-12-1.414-1.414L45,46.586Z"/><rect x="25" y="55" width="7" height="2"/><rect x="16" y="51" width="16" height="2"/></g></svg>
