<svg xmlns:dc="http://purl.org/dc/elements/1.1/" xmlns:cc="http://creativecommons.org/ns#" xmlns:rdf="http://www.w3.org/1999/02/22-rdf-syntax-ns#" xmlns:svg="http://www.w3.org/2000/svg" xmlns="http://www.w3.org/2000/svg" xmlns:sodipodi="http://sodipodi.sourceforge.net/DTD/sodipodi-0.dtd" xmlns:inkscape="http://www.inkscape.org/namespaces/inkscape" viewBox="0 0 16.933333 21.1666675" version="1.1" x="0px" y="0px"><g transform="translate(0,-280.06665)"><path style="color:#000000;font-style:normal;font-variant:normal;font-weight:normal;font-stretch:normal;font-size:medium;line-height:normal;font-family:sans-serif;font-variant-ligatures:normal;font-variant-position:normal;font-variant-caps:normal;font-variant-numeric:normal;font-variant-alternates:normal;font-feature-settings:normal;text-indent:0;text-align:start;text-decoration:none;text-decoration-line:none;text-decoration-style:solid;text-decoration-color:#000000;letter-spacing:normal;word-spacing:normal;text-transform:none;writing-mode:lr-tb;direction:ltr;text-orientation:mixed;dominant-baseline:auto;baseline-shift:baseline;text-anchor:start;white-space:normal;shape-padding:0;clip-rule:nonzero;display:inline;overflow:visible;visibility:visible;opacity:1;isolation:auto;mix-blend-mode:normal;color-interpolation:sRGB;color-interpolation-filters:linearRGB;solid-color:#000000;solid-opacity:1;vector-effect:none;fill:#000000;fill-opacity:1;fill-rule:nonzero;stroke:none;stroke-width:0.5291667;stroke-linecap:butt;stroke-linejoin:round;stroke-miterlimit:4;stroke-dasharray:none;stroke-dashoffset:0;stroke-opacity:1;paint-order:normal;color-rendering:auto;image-rendering:auto;shape-rendering:auto;text-rendering:auto;enable-background:accumulate" d="m 7.1437443,281.12498 c -0.9978099,0 -1.8686754,0.66775 -2.4732351,1.67535 -0.6045597,1.0076 -0.9663483,2.3725 -0.9663483,3.8809 -5.3e-6,1.74618 7.9e-6,3.6096 0,5.31234 -0.1819672,0.0611 -0.3567271,0.12798 -0.5141807,0.20671 -0.6222286,0.31111 -1.0733193,0.77838 -1.0733193,1.36012 v 2.11666 c 5.291e-4,0.14541 0.1191736,0.26407 0.2645833,0.26459 H 14.552078 c 0.146169,5.3e-4 0.264073,-0.11841 0.264583,-0.26459 v -2.11666 c 0,-0.58174 -0.451607,-1.04901 -1.073835,-1.36012 -0.157356,-0.0787 -0.332306,-0.1452 -0.514181,-0.20619 7.94e-4,-1.77026 5.29e-4,-3.54182 5.29e-4,-5.31286 0,-1.5084 -0.360756,-2.8733 -0.965316,-3.8809 -0.604573,-1.0076 -1.47647,-1.67535 -2.4742803,-1.67535 z m 0,0.52917 h 1.0583334 v 2.38125 H 6.879161 c -1.0782036,0 -1.9678413,0.80903 -2.0985798,1.85208 h -0.506947 c 0.1024731,-1.10153 0.409784,-2.08289 0.8495612,-2.81585 0.5432002,-0.90534 1.2594088,-1.41748 2.0205489,-1.41748 z m 1.5875001,0 h 1.0583333 c 0.7611403,0 1.4763143,0.51214 2.0195143,1.41748 0.43978,0.73296 0.747895,1.71432 0.850596,2.81585 h -0.506947 c -0.130739,-1.04305 -1.020384,-1.85208 -2.09858,-1.85208 H 8.7312444 Z m -1.8520834,2.91041 h 3.175 c 0.88405,0 1.5875,0.70344 1.5875,1.5875 0,0.88405 -0.703461,1.58748 -1.5875,1.5875 H 9.3694485 l -0.7152032,-0.71571 c -0.051713,-0.0519 -0.1196895,-0.078 -0.1875843,-0.078 -0.067895,0 -0.1358715,0.0261 -0.1875843,0.078 L 7.562839,287.73956 H 6.879161 c -0.8840603,0 -1.5875001,-0.70345 -1.5875001,-1.5875 0,-0.88406 0.7034398,-1.5875 1.5875001,-1.5875 z m -2.0985798,1.85209 c 0.062074,0.49524 0.2951506,0.93703 0.63872,1.26504 0.142928,0.65561 0.4013465,1.35532 0.7586107,1.98179 0.549201,0.96305 1.3264595,1.78025 2.2887491,1.78025 0.9622896,0 1.738506,-0.8172 2.287715,-1.78025 0.357256,-0.62647 0.616402,-1.32618 0.759645,-1.98179 0.343569,-0.32801 0.576646,-0.7698 0.63872,-1.26504 h 0.538985 c 0.0027,0.0882 0.0083,0.17519 0.0083,0.26458 v 3.43958 c 0,0.46208 -0.330832,0.91444 -0.949812,1.26814 -0.618958,0.35371 -1.504278,0.58395 -2.489758,0.58395 h -1.5875 c -0.9854909,0 -1.8718239,-0.23024 -2.4908034,-0.58395 -0.6189795,-0.3537 -0.94878,-0.80555 -0.94878,-1.26762 v -3.4401 c 0,-0.0894 0.00556,-0.17637 0.00826,-0.26458 0.1796653,0 0.3593333,0 0.5389986,0 z m 3.6860798,1.16892 0.6061657,0.60513 c 0.04962,0.0499 0.117184,0.078 0.1875843,0.078 h 0.79375 c 0.281199,0 0.549193,-0.0563 0.794785,-0.15606 -0.138417,0.43779 -0.323319,0.88525 -0.553456,1.28881 -0.5041502,0.88406 -1.1837298,1.51308 -1.828829,1.51308 -0.6450912,0 -1.3236363,-0.62902 -1.8277946,-1.51308 -0.2300314,-0.40337 -0.4150307,-0.85057 -0.5534554,-1.28829 0.2453031,0.0995 0.5129503,0.15554 0.79375,0.15554 h 0.79375 c 0.0704,-5e-5 0.1374458,-0.0281 0.1870684,-0.078 z m -4.2333334,3.7362 c 0.1618297,0.17678 0.4052993,0.36522 0.686779,0.52607 0.720082,0.41148 1.6861737,0.65422 2.7528044,0.65422 h 0.5291667 v 0.52917 H 7.672911 c -1.4009212,0 -2.6248334,-0.40822 -3.4395834,-1.04283 z m 8.4666664,0 v 0.66766 c -0.83031,0.636 -2.039363,1.0418 -3.439583,1.0418 H 8.7312444 v -0.52917 H 9.260411 c 1.06662,0 2.033768,-0.24274 2.753836,-0.65422 0.281382,-0.16079 0.521507,-0.34669 0.685747,-0.52607 z m -8.7141974,1.13689 c 0.9253274,0.68411 2.230009,1.10174 3.6871144,1.10174 h 0.5291667 v 1.85208 H 2.6458275 v -1.85208 c 0,-0.29773 0.2568523,-0.62452 0.7823809,-0.88729 0.1637242,-0.0819 0.3526314,-0.15305 0.5575882,-0.21445 z m 8.9627604,0 c 0.204962,0.0614 0.393981,0.13265 0.557591,0.21445 0.525529,0.26277 0.781347,0.58956 0.781347,0.88729 v 1.85208 H 8.7312444 V 293.5604 H 9.260411 c 1.457087,0 2.762713,-0.41763 3.688146,-1.10174 z"/><path style="display:inline;opacity:1;fill:#000000;fill-opacity:1;stroke:none;stroke-width:0.52916676;stroke-linecap:butt;stroke-linejoin:round;stroke-miterlimit:4;stroke-dasharray:none;stroke-dashoffset:0;stroke-opacity:1;paint-order:normal" d="m 7.67292,294.61873 a 0.26458335,0.26458335 0 0 1 -0.26459,0.26458 0.26458335,0.26458335 0 0 1 -0.26458,-0.26458 0.26458335,0.26458335 0 0 1 0.26458,-0.26458 0.26458335,0.26458335 0 0 1 0.26459,0.26458 z"/><path style="display:inline;opacity:1;fill:#000000;fill-opacity:1;stroke:none;stroke-width:0.52916676;stroke-linecap:butt;stroke-linejoin:round;stroke-miterlimit:4;stroke-dasharray:none;stroke-dashoffset:0;stroke-opacity:1;paint-order:normal" d="M 6.61458,294.61873 A 0.26458335,0.26458335 0 0 1 6.35,294.88331 0.26458335,0.26458335 0 0 1 6.08542,294.61873 0.26458335,0.26458335 0 0 1 6.35,294.35415 a 0.26458335,0.26458335 0 0 1 0.26458,0.26458 z"/><path style="display:inline;opacity:1;fill:#000000;fill-opacity:1;stroke:none;stroke-width:0.52916676;stroke-linecap:butt;stroke-linejoin:round;stroke-miterlimit:4;stroke-dasharray:none;stroke-dashoffset:0;stroke-opacity:1;paint-order:normal" d="M 9.78959,294.61873 A 0.26458335,0.26458335 0 0 1 9.525,294.88331 0.26458335,0.26458335 0 0 1 9.26042,294.61873 0.26458335,0.26458335 0 0 1 9.525,294.35415 0.26458335,0.26458335 0 0 1 9.78959,294.61873 Z"/><path style="display:inline;opacity:1;fill:#000000;fill-opacity:1;stroke:none;stroke-width:0.52916676;stroke-linecap:butt;stroke-linejoin:round;stroke-miterlimit:4;stroke-dasharray:none;stroke-dashoffset:0;stroke-opacity:1;paint-order:normal" d="m 10.84792,294.61873 a 0.26458335,0.26458335 0 0 1 -0.26458,0.26458 0.26458335,0.26458335 0 0 1 -0.26459,-0.26458 0.26458335,0.26458335 0 0 1 0.26459,-0.26458 0.26458335,0.26458335 0 0 1 0.26458,0.26458 z"/></g><text x="0" y="31.933334" fill="#000000" font-size="5px" font-weight="bold" font-family="'Helvetica Neue', Helvetica, Arial-Unicode, Arial, Sans-serif">Created by Ranah Pixel Studio</text><text x="0" y="36.933334" fill="#000000" font-size="5px" font-weight="bold" font-family="'Helvetica Neue', Helvetica, Arial-Unicode, Arial, Sans-serif">from the Noun Project</text></svg>