<svg xmlns="http://www.w3.org/2000/svg" xmlns:xlink="http://www.w3.org/1999/xlink" version="1.1" x="0px" y="0px" viewBox="0 0 100 125" enable-background="new 0 0 100 100" xml:space="preserve"><g><path d="M86.551,26.51c-0.071-0.255-0.241-0.472-0.473-0.602l-17.65-9.929c-0.149-0.084-0.318-0.128-0.49-0.128H59.51   c-0.553,0-1,0.448-1,1c0,4.605-3.747,8.353-8.353,8.353s-8.353-3.747-8.353-8.353c0-0.552-0.447-1-1-1   c-0.052,0-0.097,0.022-0.146,0.029c-0.013-0.002-0.024-0.001-0.037-0.003c-0.045-0.006-0.084-0.026-0.13-0.026h-8.428   c-0.172,0-0.341,0.044-0.49,0.128l-17.65,9.929c-0.231,0.13-0.401,0.347-0.473,0.602s-0.039,0.529,0.092,0.76l8.431,14.981   c0.184,0.327,0.522,0.51,0.872,0.51c0.166,0,0.334-0.041,0.489-0.128l9.014-5.071l-5.885,39.273   c-0.064,0.431,0.157,0.854,0.549,1.046l16.649,8.167c0.139,0.068,0.29,0.102,0.44,0.102c0.143,0,0.285-0.03,0.418-0.092   c0.273-0.125,0.476-0.368,0.551-0.659l5.759-22.358l6.31,22.38c0.085,0.298,0.303,0.541,0.59,0.656   c0.12,0.048,0.247,0.072,0.373,0.072c0.176,0,0.352-0.046,0.507-0.138l13.89-8.167c0.348-0.204,0.538-0.597,0.484-0.997   l-5.358-39.303l9.043,5.088c0.481,0.271,1.091,0.1,1.361-0.381l8.431-14.981C86.59,27.039,86.622,26.766,86.551,26.51z    M50.157,27.203c3.461,0,6.522-1.713,8.403-4.33c-0.573,2.39-1.421,4.912-2.637,6.407c-2.42,2.975-4.994,3.87-6.531,4.405   c-0.152,0.053-0.294,0.103-0.427,0.15c-2.324-0.748-4.623-2.003-6.014-4.112c-2.92-4.428-3.091-7.735-2.68-9.792   C41.587,24.14,45.521,27.203,50.157,27.203z M43.439,83.711l-2.972-1.458c0.001-0.079,0.004-0.159-0.018-0.24   c-0.036-0.136-0.098-0.258-0.178-0.362c-0.214-0.277-0.562-0.412-0.92-0.37c-0.049,0.005-0.096-0.004-0.144,0.008   c-0.132,0.035-0.248,0.097-0.351,0.174l-5.768-2.829c0.05-0.164,0.062-0.34,0.016-0.519c-0.144-0.543-0.7-0.867-1.243-0.724   c-0.229,0.061-0.407,0.201-0.535,0.378l-2.778-1.363l1.211-8.084c0.378-0.227,0.587-0.669,0.47-1.116   c-0.043-0.164-0.133-0.299-0.239-0.416l1.65-11.021c0.244,0.201,0.566,0.299,0.896,0.213c0.271-0.071,0.488-0.246,0.618-0.471   c0.131-0.225,0.176-0.5,0.104-0.771c-0.143-0.543-0.698-0.867-1.24-0.725c-0.046,0.012-0.081,0.043-0.124,0.061l2.413-16.104   c0.425-0.209,0.671-0.678,0.545-1.153c-0.051-0.193-0.166-0.344-0.302-0.47l0.077-0.514c0.007-0.043-0.007-0.082-0.007-0.125   c0.002-0.068,0.003-0.133-0.01-0.202c-0.013-0.07-0.037-0.132-0.064-0.197c-0.016-0.038-0.017-0.078-0.037-0.115   c-0.01-0.018-0.028-0.028-0.039-0.045c-0.038-0.059-0.085-0.107-0.135-0.157c-0.044-0.044-0.085-0.089-0.136-0.125   c-0.049-0.033-0.103-0.055-0.157-0.079c-0.066-0.03-0.131-0.058-0.201-0.073c-0.02-0.004-0.035-0.017-0.055-0.02   c-0.042-0.006-0.079,0.007-0.12,0.006c-0.069-0.002-0.136-0.003-0.204,0.009c-0.076,0.013-0.145,0.04-0.214,0.069   c-0.033,0.014-0.068,0.015-0.101,0.033l-5.062,2.848c-0.077-0.01-0.152-0.029-0.233-0.02c-0.05,0.005-0.099-0.004-0.149,0.009   c-0.315,0.083-0.536,0.313-0.65,0.593l-3.83,2.155l-0.164-0.292c-0.005-0.058-0.005-0.116-0.021-0.174   c-0.062-0.23-0.206-0.408-0.382-0.541l-2.058-3.656c0.092,0.001,0.184,0.008,0.277-0.017c0.542-0.143,0.866-0.699,0.725-1.241   c-0.144-0.544-0.7-0.868-1.243-0.725c-0.269,0.071-0.481,0.243-0.613,0.464l-3.971-7.057l7.272-4.091   c0.03,0.025,0.056,0.059,0.09,0.079c0.226,0.131,0.5,0.176,0.771,0.104c0.488-0.129,0.78-0.594,0.733-1.081l7.683-4.322h6.49   c-0.909,2.248-1.649,6.733,2.467,12.975c0.902,1.368,2.092,2.425,3.409,3.25c0.006,0.05-0.004,0.098,0.009,0.148   c0.107,0.408,0.447,0.691,0.84,0.748c0.131,0.019,0.268,0.012,0.404-0.024c0.067-0.018,0.119-0.059,0.179-0.088   c3.448,1.655,7.358,2.003,9.369,2.06l-1.41,5.476c-0.461,0.193-0.731,0.686-0.601,1.182c0.038,0.145,0.109,0.271,0.198,0.379   L50.99,54.397c-1.665-1.576-4.28-3.719-5.958-3.468c-0.139,0.021-0.27,0.06-0.396,0.107c-0.231-0.149-0.519-0.211-0.807-0.135   c-0.543,0.143-0.866,0.699-0.724,1.242c0.046,0.173,0.143,0.312,0.258,0.433c-0.478,1.25-0.447,2.367,0.101,3.327   c0.256,0.448,0.626,0.839,1.094,1.184c-0.043,0.164-0.06,0.335-0.014,0.511c0.145,0.542,0.698,0.867,1.241,0.725   c0.219-0.058,0.388-0.193,0.52-0.356c0.962,0.338,2.143,0.578,3.546,0.722c-0.23,0.518-0.958,1.969-2.325,3.269   c-0.234-0.157-0.526-0.225-0.82-0.147c-0.542,0.144-0.865,0.699-0.722,1.243c0.007,0.025,0.024,0.043,0.033,0.068   c-0.65,0.395-1.391,0.723-2.229,0.933c-0.536,0.134-0.862,0.677-0.728,1.213c0.113,0.454,0.521,0.757,0.969,0.757   c0.08,0,0.162-0.009,0.243-0.03c1.801-0.45,3.219-1.325,4.322-2.298l-1.029,3.995c-0.118,0.178-0.168,0.388-0.156,0.609   L43.439,83.711z M57.796,59.94c0.046,0.176,0.146,0.317,0.266,0.438c-0.05,0.131-0.094,0.26-0.162,0.4   c-0.765-0.011-3.101-1.765-5.132-3.85c3.897,0.319,5.012,1.284,5.329,1.839c0.021,0.038,0.027,0.084,0.045,0.125   C57.841,59.138,57.69,59.541,57.796,59.94z M53.709,65.883l-0.701-2.487c0.436,0.827,0.864,1.627,1.233,2.292   c-0.062,0.004-0.125,0.004-0.188,0.021C53.923,65.743,53.811,65.808,53.709,65.883z M45.202,54.913   c-0.279-0.489-0.214-1.163,0.197-2.01c0.75,0.011,3.011,1.701,5.014,3.733l-0.026,0.103C46.61,56.407,45.516,55.461,45.202,54.913z    M83.073,29.209c-0.226-0.134-0.499-0.188-0.772-0.116c-0.032,0.009-0.056,0.031-0.087,0.043c-0.355,0.131-0.609,0.435-0.66,0.796   c-0.02,0.13-0.013,0.267,0.023,0.403c0.075,0.285,0.268,0.501,0.509,0.629l-3.146,5.591c-0.23-0.366-0.668-0.566-1.108-0.45   c-0.543,0.143-0.865,0.699-0.724,1.242c0.118,0.451,0.525,0.733,0.97,0.74l-1.301,2.312l-3.618-2.036   c-0.154-0.528-0.696-0.844-1.233-0.702c-0.003,0.001-0.005,0.002-0.008,0.003l-5.065-2.85c-0.314-0.177-0.7-0.165-1.009,0.023   c0.01-0.115,0.01-0.232-0.021-0.351c-0.142-0.543-0.697-0.867-1.24-0.724c-0.543,0.143-0.867,0.699-0.725,1.242   c0.144,0.543,0.7,0.867,1.243,0.723c0.102-0.027,0.187-0.08,0.271-0.133c-0.007,0.075-0.011,0.15-0.001,0.226l0.475,3.483   c-0.429,0.208-0.676,0.679-0.55,1.156c0.104,0.396,0.43,0.668,0.808,0.736l0.621,4.553c0.005,0.056-0.005,0.11,0.01,0.166   c0.004,0.014,0.014,0.023,0.018,0.037l4.159,30.506l-11.286,6.635c0.004-0.098,0.009-0.197-0.018-0.297   c-0.035-0.136-0.097-0.258-0.178-0.363c-0.242-0.313-0.656-0.469-1.062-0.362c-0.031,0.008-0.053,0.028-0.082,0.04l-0.992-3.519   c0.053-0.005,0.104,0.004,0.156-0.009c0.541-0.143,0.864-0.699,0.721-1.242c-0.062-0.234-0.209-0.416-0.39-0.548   c-0.238-0.175-0.542-0.257-0.85-0.176c-0.008,0.002-0.013,0.007-0.02,0.01c-0.057,0.016-0.101,0.05-0.151,0.075l-0.999-3.546   c0.082,0,0.165-0.005,0.249-0.027c0.542-0.143,0.865-0.699,0.723-1.242c-0.05-0.188-0.161-0.337-0.292-0.462   c-0.247-0.236-0.595-0.356-0.948-0.263c-0.095,0.025-0.182,0.065-0.262,0.113l-1.014-3.597c0.022,0.002,0.044,0.012,0.067,0.013   c0.096,0.003,0.191,0.009,0.288-0.017c0.261-0.069,0.462-0.239,0.594-0.452c0.022,0.029,0.048,0.067,0.066,0.087   c0.193,0.22,0.459,0.33,0.729,0.33c0.228,0,0.459-0.079,0.649-0.238c0.416-0.347,0.468-0.978,0.132-1.403   c-0.277-0.351-1.558-2.738-2.925-5.383c1.38,1.129,2.963,2.155,4.169,2.155c0.097,0,0.19-0.006,0.281-0.02   c0.615-0.091,1.11-0.455,1.395-1.022c0.752-1.505,0.811-2.834,0.173-3.952c-0.916-1.605-3.19-2.531-6.919-2.836l4.836-18.775   c0.079-0.307,0.007-0.633-0.192-0.879s-0.505-0.378-0.821-0.369c-0.041,0.001-1.919,0.07-4.338-0.294   c1.29-0.633,2.793-1.615,4.274-3.187c0.238,0.333,0.659,0.506,1.081,0.395c0.543-0.143,0.867-0.699,0.724-1.242   c-0.081-0.308-0.3-0.532-0.568-0.654c2.025-2.994,3.015-8.123,3.427-10.965c0.173-0.238,0.252-0.541,0.172-0.848   c-0.009-0.033-0.031-0.057-0.043-0.087c0.009-0.069,0.015-0.123,0.022-0.186h6.188l5.103,2.871c0,0.087-0.008,0.174,0.016,0.262   c0.143,0.543,0.698,0.867,1.241,0.723c0.099-0.026,0.181-0.079,0.264-0.13l5.839,3.285c0.002,0.006-0.001,0.013,0.001,0.019   c0.144,0.543,0.7,0.867,1.243,0.724c0.016-0.004,0.026-0.016,0.041-0.02l2.803,1.577L83.073,29.209z"/><circle cx="19.181" cy="29.283" r="1.017"/><circle cx="39.776" cy="35.521" r="1.017"/><path d="M26.268,32.197c-0.136,0.036-0.258,0.098-0.362,0.179c-0.314,0.242-0.47,0.657-0.362,1.064   c0.143,0.543,0.699,0.867,1.242,0.724c0.152-0.041,0.28-0.121,0.393-0.217c0.188-0.16,0.319-0.377,0.354-0.622   c0.019-0.131,0.012-0.268-0.024-0.404C27.365,32.378,26.81,32.054,26.268,32.197z"/><circle cx="32.432" cy="31.623" r="1.017"/><circle cx="38.339" cy="30.066" r="1.017"/><path d="M26.07,27.466c-0.144-0.543-0.698-0.867-1.241-0.724c-0.407,0.107-0.692,0.447-0.748,0.839   c-0.02,0.131-0.013,0.268,0.023,0.403c0.107,0.407,0.447,0.691,0.84,0.747c0.001,0,0.003,0,0.005,0   c0.129,0.018,0.264,0.012,0.397-0.023c0.202-0.053,0.359-0.176,0.487-0.322C26.052,28.142,26.16,27.807,26.07,27.466z"/><circle cx="30.994" cy="26.169" r="1.017"/><circle cx="36.9" cy="24.611" r="1.017"/><circle cx="29.557" cy="20.714" r="1.017"/><circle cx="35.462" cy="19.156" r="1.017"/><circle cx="63.402" cy="29.293" r="1.017"/><circle cx="61.964" cy="23.838" r="1.017"/><circle cx="69.309" cy="27.735" r="1.017"/><circle cx="75.215" cy="26.179" r="1.017"/><circle cx="67.872" cy="22.281" r="1.017"/><path d="M36.16,66.052c0.019-0.13,0.013-0.267-0.023-0.402c-0.107-0.408-0.447-0.692-0.839-0.748   c-0.131-0.019-0.268-0.012-0.403,0.023c-0.543,0.143-0.867,0.699-0.724,1.243c0.035,0.136,0.098,0.258,0.178,0.362   c0.027,0.034,0.066,0.054,0.098,0.085c0.015,0.015,0.031,0.028,0.048,0.042c0.05,0.043,0.091,0.096,0.147,0.129   c0.204,0.119,0.449,0.154,0.695,0.109c0.025-0.005,0.051,0.002,0.077-0.004C35.82,66.784,36.104,66.444,36.16,66.052z"/><path d="M34.698,60.195c-0.036-0.136-0.098-0.258-0.178-0.363c-0.214-0.277-0.562-0.412-0.92-0.37   c-0.049,0.005-0.096-0.004-0.144,0.008c-0.543,0.143-0.868,0.699-0.725,1.243c0.144,0.543,0.7,0.868,1.243,0.725   c0.091-0.024,0.166-0.075,0.244-0.12C34.604,61.093,34.817,60.646,34.698,60.195z"/><circle cx="39.622" cy="58.896" r="1.017"/><circle cx="38.184" cy="53.441" r="1.017"/><circle cx="36.746" cy="47.987" r="1.017"/><circle cx="42.652" cy="46.431" r="1.017"/><path d="M35.567,43.516c0.543-0.143,0.867-0.7,0.725-1.243c-0.107-0.407-0.447-0.691-0.84-0.747   c-0.131-0.019-0.268-0.012-0.403,0.023c-0.543,0.143-0.867,0.699-0.724,1.242C34.468,43.335,35.024,43.659,35.567,43.516z"/><path d="M40.231,41.234c0.036,0.136,0.098,0.258,0.179,0.362c0.242,0.313,0.656,0.47,1.063,0.362   c0.543-0.143,0.867-0.699,0.725-1.242c-0.144-0.543-0.7-0.867-1.244-0.724C40.412,40.135,40.089,40.691,40.231,41.234z"/><path d="M63.703,58.382c0.105,0.401,0.436,0.679,0.82,0.741c0.137,0.022,0.279,0.02,0.422-0.018   c0.406-0.107,0.69-0.447,0.747-0.838c0.019-0.131,0.012-0.267-0.023-0.403c-0.144-0.543-0.7-0.868-1.243-0.724   c-0.136,0.036-0.258,0.097-0.361,0.178C63.751,57.56,63.596,57.975,63.703,58.382z"/><circle cx="57.342" cy="54.225" r="1.017"/><circle cx="63.248" cy="52.668" r="1.017"/><path d="M48.991,50.184c-0.02,0.13-0.013,0.267,0.023,0.403c0.143,0.543,0.699,0.868,1.242,0.724   c0.542-0.143,0.865-0.699,0.723-1.242c-0.061-0.23-0.205-0.408-0.382-0.541c-0.136-0.102-0.286-0.183-0.457-0.207   c-0.131-0.019-0.267-0.012-0.402,0.023c-0.079,0.021-0.143,0.067-0.212,0.105C49.24,49.603,49.036,49.868,48.991,50.184z"/><circle cx="55.903" cy="48.771" r="1.018"/><circle cx="61.809" cy="47.214" r="1.017"/><path d="M47.576,45.132c0.063,0.242,0.217,0.43,0.406,0.562c0.237,0.166,0.535,0.241,0.837,0.162   c0.406-0.108,0.689-0.447,0.745-0.839c0.02-0.131,0.013-0.267-0.023-0.403c-0.144-0.543-0.698-0.868-1.241-0.725   S47.433,44.589,47.576,45.132z"/><circle cx="60.371" cy="41.759" r="1.017"/><path d="M47.094,40.418c0.096,0.003,0.191,0.009,0.288-0.017c0.406-0.107,0.689-0.447,0.745-0.839v0   c0.019-0.131,0.012-0.267-0.024-0.403c-0.035-0.136-0.097-0.258-0.178-0.362c-0.161-0.209-0.399-0.348-0.66-0.385   c-0.131-0.019-0.268-0.012-0.403,0.023c-0.542,0.144-0.866,0.699-0.724,1.242C46.256,40.124,46.654,40.406,47.094,40.418z"/><path d="M52.222,38.483c0.242,0.313,0.657,0.469,1.065,0.361c0.406-0.107,0.69-0.447,0.747-0.839   c0.019-0.131,0.012-0.267-0.023-0.403c-0.107-0.407-0.447-0.691-0.84-0.748c-0.13-0.019-0.267-0.012-0.402,0.023   c-0.544,0.144-0.868,0.7-0.725,1.243C52.079,38.256,52.142,38.378,52.222,38.483z"/><path d="M59.94,36.448c0.019-0.13,0.012-0.267-0.023-0.403c-0.144-0.543-0.7-0.867-1.243-0.724   c-0.543,0.144-0.866,0.699-0.724,1.242c0.072,0.271,0.246,0.488,0.472,0.62c0.225,0.131,0.499,0.176,0.771,0.104   C59.6,37.18,59.884,36.84,59.94,36.448z"/><circle cx="70.747" cy="33.19" r="1.017"/><path d="M76.393,30.65c-0.136,0.036-0.257,0.097-0.361,0.178c-0.313,0.242-0.468,0.657-0.36,1.064   c0.035,0.136,0.097,0.258,0.178,0.362c0.073,0.095,0.166,0.17,0.266,0.233c0.01,0.006,0.017,0.017,0.026,0.023   c0.225,0.131,0.5,0.177,0.771,0.105c0.407-0.107,0.691-0.447,0.747-0.84c0.02-0.13,0.013-0.267-0.023-0.403   C77.493,30.831,76.937,30.506,76.393,30.65z"/><circle cx="30.685" cy="72.92" r="1.017"/><path d="M37.865,75.829c-0.032,0.005-0.062-0.003-0.095,0.005c-0.133,0.035-0.253,0.096-0.355,0.175   c-0.002,0.001-0.004,0.001-0.006,0.002c-0.314,0.243-0.471,0.657-0.363,1.065c0.144,0.543,0.7,0.867,1.243,0.724   c0.271-0.072,0.488-0.247,0.618-0.471c0.131-0.225,0.176-0.5,0.104-0.772C38.878,76.047,38.376,75.745,37.865,75.829z"/><circle cx="43.936" cy="75.26" r="1.017"/><path d="M37.574,71.104c-0.144-0.543-0.698-0.867-1.241-0.724c-0.407,0.107-0.692,0.447-0.748,0.839   c-0.02,0.13-0.013,0.267,0.023,0.403c0.072,0.271,0.246,0.488,0.472,0.619c0.144,0.084,0.31,0.116,0.48,0.122   c0.096,0.003,0.192,0.009,0.29-0.017c0.202-0.053,0.359-0.176,0.488-0.322C37.556,71.779,37.664,71.445,37.574,71.104z"/><circle cx="42.498" cy="69.806" r="1.017"/><path d="M42.044,64.092c-0.107-0.407-0.447-0.691-0.84-0.748c-0.131-0.019-0.268-0.012-0.403,0.023   c-0.543,0.143-0.867,0.699-0.724,1.243c0.143,0.543,0.699,0.866,1.242,0.723S42.187,64.635,42.044,64.092z"/><circle cx="63.094" cy="76.044" r="1.016"/><circle cx="68.999" cy="74.487" r="1.017"/><circle cx="61.655" cy="70.59" r="1.018"/><circle cx="67.561" cy="69.033" r="1.017"/><circle cx="60.217" cy="65.135" r="1.017"/><circle cx="66.123" cy="63.578" r="1.017"/></g><text x="0" y="115" fill="#000000" font-size="5px" font-weight="bold" font-family="'Helvetica Neue', Helvetica, Arial-Unicode, Arial, Sans-serif">Created by Nicole Portantiere</text><text x="0" y="120" fill="#000000" font-size="5px" font-weight="bold" font-family="'Helvetica Neue', Helvetica, Arial-Unicode, Arial, Sans-serif">from the Noun Project</text></svg>