<?xml version="1.0" encoding="UTF-8"?>
<!DOCTYPE svg  PUBLIC '-//W3C//DTD SVG 1.1//EN'  'http://www.w3.org/Graphics/SVG/1.1/DTD/svg11.dtd'>
<svg width="789.79" height="549.83" xmlns="http://www.w3.org/2000/svg">
 <g transform="translate(-116.97 -123.75)" fill="#bfbfbf">
  <path d="m212.81 660 2.16-4.94 1.56-4.06 1.38-1.25 1.18-2.19.97-1.31 4.32.34 1 1.38 1.56 2.75 1.75 1.81 1.12.59.22 2-2.25 2.22-3.84 2.85-3.85 1.19-5.03.56z"/>
  <g stroke="#fff" stroke-width=".5">
   <path d="m179.67 491.83-7.34 11.5-5.16 9.84-1.67 4.33v4h2.33l2.34 2 1.66 3 2.67 2-1.92 2.17v3l.92 1.66 2.5 2.5-1 4.5-2.42 4.84-1.58 2.66-.83 1.84 2.41 1 3.42 1.5 2.33 1.83 1.34 2.5 2.33 1.17 4 3.33 2.67 3 2.16 3.17 1.67 5v3.16l-4.5 3 .67 1.5 3.83 3 2 4.17 2.17 4.33.83 4.84-1.67 3.66h-3.66l-1.5 5.5-5.67 3 2.5 2.17 1.67.67h5.16l5.5-1.67 6.5-1.33 7.84 1.16 5 3.34 4.83 4.33 3.5 4.83.83 6 1.7 4.83 2.64 2.17 3.16 3v2.33l2.34 1.84 3 3.66 3.16-2.5 4.67-6.83 3.5-9.33 3-6.34 2.33-7.33 2.17-5.5 2.5-5.17 3-4 2.5-1 2.33-.16v-5.34l2-3-1.5-5-1.66-4.16-2-2.67v-2.67l-6 .67-3.5-1.33-3.67-1-5-.34-2.17-3.83 2-2.83-3.66-2.17-4.84-1.17-1.16-3 1.83-2 .33-4.5 2.5-3.33 2.67-3.5 3.5-.33.5-7.17-2.83-2.33.33-2.67 3.33-.67 1.34-1.33-3-2.83-3.17-1.17-3-1-3.33-2.5-3-2-2-2.5-3-4-4-2.33-3.17-1.84-4 .67-3.33-2.17-6.34-.16-4-4.84-7.5-.5-5.83-4.83-4.5-3-4.67-2.67z"/>
   <path d="m179.67 491.83 5.16 4.33 4.67 2.67 4.5 3 5.83 4.83 7.5.5 4 4.84 6.34.16 3.33 2.17 4-.67 7.17 4.17 5 6.5 2.75.59 1.16-3.75 3-1.75 3.42.58 5.17 1.75 3-1.17 1.58-.83-4.5-10.42-4.25-7.58-.42-4 2.25-3.25 2.5-2.67 1.92-.91 2.5 2 5.25 3.58 4.33.67 4.34 2.5 3.5 1 5.33-3.67 1.5-3.17 2-5.33 3-2-1.67-3.17-4.5-1.5-3-2.66-1.66-3.5-1-5.17-4.17-3.67-3.17-2.83-4.83 3-7.17 3.5-7.5 3.5-4.16.83-1.34-4.16-2.33-4-4.17-2.67h-2.75l-3.58-.83-1.17-3.83-1-6.17-3.83-3-4.58-1.5-6.75-2.33-4.5-1.67-4-1.67-3.67-3.83-.33-2.5 1.83-6.17 2.17-4.66 2.66-5.5 1.5-4.84 1.67-3.16-3.67-3.5-4.5-1.34-5.33 1.5-7.83-.66-5.67-1.67-4.5-1.67h-4.83l-2.34.84-3.5-.84-2.5-1-2.5 3-1.83 4.5 1 3.34-1 1.83-8 .5-4-1.17-3 1.67-2.17-2-4.5-3.33-2.33 2.66-2.33.17-3.5-2-5.34-1v2l-3.5 2.67-4.5 2 1 1.66 3.67.67 2.5 1.17 3 3 1.83 2.33 1.84 3.33 3.33 4.84 3.67 3.66 3.16 2.67 2.17 2.17 1.17 3.16-.5 1.34-5.34.16v2.17l.84 2 1.33 3 3 1.17 3.83 2.33 3.5 3.33 2.34 2.34 1.16 4 4 1.16 4.17 3.67 3.67 2.17 3.5 1.66 3.66 1.17 2.84 1 3.5 1.5 2.16 1.5.34 1.5-.84 2.5z"/>
   <path d="m164.83 404 2.5 1 3.5.84 2.34-.84h4.83l4.5 1.67 5.67 1.67 7.83.66 5.33-1.5 4.5 1.34 3.67 3.5 2.88-1.34.46-2.62-.78-3.76 1.1-8.53-2.62-2.76-.33-2.21 2.37-2.66-.33-2.08-2.58-2.38-1.59-4.88-4.96-1.58-2.2-.79 1.91-4.92.17-5.16v-3.84l-3.33-1-2.84-1.66.5-1.84 2.84-1.16 2.66-3 1.17-5.67-3.33-1.17-2.5-1 3-1.66 2.16-2.17 2.17-2.5 2.17-1.83 2.83-1.34 2.66-.66 1.84-3.67 3.83.83 2.84.67 3.83-1.5 2.33-2.33v-3.67l.84-5.17 1.83-1.83 1.67-2.33 1.5-4.5 2-1.34 2-2.33v-2.67l3.83-1h4l2 1.34 1.83 2h2.5l2-.67 3.17.83 1.83.84h3.17l1.5-1.34v-12.16h3.17l2-2-2.67-2.84-3.33-1.66h-3l-3.17-2.84-3.5-2.83-3.33-1.17-2.34-1.83-2.83-2.5-3-3.17-1.33-4.66-3.34-2.34-5-2.33h-2l-1.5 2.17-1 3.33-1.66 1.83-2.84.17-2.66-1.17-3.42-.16-1.08 1-2.34-2.34-2.83.17-1.33 3.67-.17 2.66-3.17 1.5h-2.5l-2.5 2.67-.33 3.17 1.5 2.5-1.17 1.83.17 2.17-1.33 3-1.34 3.33-.16 4.17-1.34 5.5-4.66 1-3.5 1.83-2.34 3-1.83 2.67-.67 2.83-4.16 3.5-4.67 2.33-3.17 2-2.16 2.34-2.84 4.33-5 .67-4.5-.34-2.16 2.17-4.34 2.83-3 2.5-1 3.17v1l1.17.83 3-1.5 2.67-1.33 2.16-1.33 3.5-1.34 3.67.5 1.83 1.67 2.5 1.5 1.84 4.17 1.33 3.33 1.5 2.17 3.17 3.16 3.5 3.5 1.66 4.5-.16 4.67.5 6.83-1 7.67-.17 4.83-1.5 5.34-2.83 2.33-4.67.83-2.33 1.5-2.13 3.09z"/>
   <path d="m200.83 281.5 2.5-2.67h2.5l3.17-1.5.17-2.66 1.33-3.67 2.83-.17 2.34 2.34 1.08-1 3.42.16 2.66 1.17 2.84-.17 1.66-1.83 1-3.33 1.5-2.17-1.39-2.81-2.75-2.13 1.5-2.37 2.37-1.13h2.06l1.63-3.68-.87-2.44 1.56-2.32 1.73-3.95-.67-3.34 1.83-4.33v-12.17l3.17-6.66 3.5-1.84v-4.16l-3.33-2-2.67-3.34-3.33-1-3.67-.83-2.67-1.33-.83-3.84 1.17-4.5h-2.5l-3.5 2.67-1 1.17-2-2.84-5.5-1-3.17-1.66h-6l-4.83 1.33-5.84 1-3.66-2.33-2.5-3.34-5.34-1.33-3.83 1.83v4.17l-.83 4v2.83l3.66 3.34 3.34 3.5.16 3 1.67 3.83 2.33 3.17-.5 3.16-.5 2.17v3.17l2.5 2.66 1 5.17-2.33 4.83-1.33 3.34-.84 2 1.34 3.83v2l-2.34 1-2.5-2.5-3.33 1.83-2.33 1.34-1.5 2.33-2 1.17h-3.67l-1 1.83v3.17l2.17 1.16 1.16 3.17 1.67 2 .83 2.83 1.67 1.34 2.17.83 2-.33 2.16 2.16 1 2.84 4.5 3 4 .83 3.84.83z"/>
   <path d="m182.33 189.5 5.34 1.33 2.5 3.34 3.66 2.33 5.84-1 4.83-1.33h6l3.17 1.66 5.5 1 2 2.84 1-1.17 3.5-2.67h2.5l-1.17 4.5.83 3.84 2.96 1.4 3.38.76 3.33 1 2.67 3.34 3.33 2h2.5l2.17-4.17 1-1.83 3.5.83 3.66 1.17 3.17-1 2.67 1.33 3.33.33 1.17-2.83 2.5-.17 5 2.34 2.83 1.5 2.83 2.5 1.34 1.33 3.83 1 2.17.83 1.66-4.16 2-1.5 1.84.66h3.5l2-2.66 1.66-4v-3.84l-3-3.5.34-3.16 2.66-1 2.17-2.34.67-4.16-2-5 2-3v-6.67l2-3.83 2.33-4.34v-3l-5.67-.83h-5.66l-3.34-2.33-3.66-2.5-2.67-2.84-2.83-2.66-4.34-1.5-3-2-3.16-1.84-7.84-.83-5.5-.67-4.33-2-5-2.16-5.33-2.34-3.67-2.33-5.5-3.33-5.17-1h-11.33l-4 .83-3-.83-3.17 1.83h-2.33l-2.83 4.5-3.5-.5-.17-3h-3.83l-.67 2.83 1.67 2.34-1 2.83-2.5 2.83-3.17 1.17-3 2.17-.5 1.66-3.5.84h-4.5l-2.33 3.83-.67 5.5 1.67 5.33 2.33 4.17.67 3.67.5 2.83 2.66 3.5-3-.67-2.83-1.83-2.83 2.83 1.16 3.84 2.5 4 1.7 1.8.22 1.84zm333 207.67-1.5 2.33-.83 3 2.33 2.5 1.5 3.17v3l1.17 4.33 2.17 2.5v2l-2.84 1.17.67 4.16-.67 2.84.17 2.66 2.67 5.17 2.5 2.33 1 2.5-.67 2.5 3.67 1.34h4.83l1.83 1.83 1 1.67v4.83l-.27 1.06.27.77 1.13 1.88 1.71.29 1.5-1.33 1.66.83 1.67 1.67h4.67l1.25 1.95.27 3.38-.02 4h2l2.46.29 5.56-.48 6.75-3.75 4.81-3.31 6.87-2.69 5.88-.68 4.33.95 4.84.17h4.95l7-.12 5.07 1.56 3.81.56 3 1.17 1 3.33 1.67 3.33 2.33 2.42 3.06 1.44 3.77.81 2.05-.38-1.32-5.81 1.11-3.14 2.83-1.34 4.33.34 4.5 3 1.34 1 2.33 2.5 2.67 2.5h3.66l1.5-2v-8.17l.84-4.67-6.5-.33-2.67-.83-3.67-1.17-3.33-2-2.17-3-.16-3.67.5-4.16 2.66-5.5 1.84-2.67.66-2.33-2-1.84.17-4.66.67-4.34 1.66-3 1.17-1.83-4.33-.33-3.67-1-3.83-1.84-3.25 1.17-3.25 2.08-3.25 1.59-2.84 1.08-8.41.25-2.83 1.42-2.92 2.91-.08 1.42-.67 2.17-2.67 3-3.08 2.41-2.58.17-.09-3.5-.17-3.33-1.33-2.34-3.37-.45-2-2.26.24-2.24-1.12-2.38-1.62-1.38-1.8-2.5-2.2-3.12-2.26-2.62-1.37-2.26h-3.63l-2.24 1-2.38 1.88-2.38-.75-2.87-1.5h-1.87l-1.76-.75-1.37-1 .25 2.25-.12 2-1.88.87-1.75 1.76-1.63 1.62-2.37 1.5h-3.37l-2.26 1.5-2.12-.12-3-.76-1-1.62-2.5-1.88-3.75-1-3.63-.24-2.24-1.5-2.13-2.13-2.25-2-2.62-2.13-1.63-1.74z"/>
   <path d="m307 163.33-4.33 8.17v6.67l-2 3 2 5-.67 4.16-2.17 2.34-2.66 1-.34 3.16 3 3.5v3.84l-1.66 4-2 2.66v6.86l1.08 2.43 1.06 6.63h5.81l5.5 1.56 7.57.75h3.5l4.12 2.94 2.5 1.56 2.44-.44 3.63-1.06 2.81.06 1 1.88.43 2.31 2.57-.93 1.19-3.76h3l4.24.44 2.76 2.06 2.18 1.13 2.38-2.19 2.75-.12 2.43.18v-3.06l-2.81-1.56-1.56-2.44-.94-3 1.63-3.25 1.81-1.75-.31-4.62-3.06-1.38-2-1.37-1.19-2.69.37-2.38 1.13-1.56 2.31 1.69 1.81 1.69 1.31-1.38 1.82-3.18v-3.69l-.82-2.57-.87-5.24-.87-3.44-4.94-1.06-2.32-3.07-3-.87-2.93-.69-2.75-2.75-2.56-2.44-3.69-2.06-5.63.06-2.75-1.31h-3.75l-1.75-1.63-1-2.18-.87-1.75-2.94-.88-5.06-1.37-2.44-.82z"/>
   <path d="m283.17 149.17.33-2.55 3.06-1.12 2.82-.69 1.43-1.81v-2.38l1.5-2.31 2.81 1.25.44 1.25 3.32.25 3.68-.87 4.88-.31 3.18-.76 2.19-.06 3.19-1.37 2.56-1.88.38-2.93 1.62-2.19 3.19-3.25 4.25-1.44 4.12-2 6.07.38 4.43 3.06 3.88 2.06 3.31.06 1.69-1 5.06 1.69 5.19.31 3.5.32 3.13-1.07 1.81.07.81 2.87.88 1.25 3.62 1.12 3.38 2.63 2 3.5 1.5 1.87v4.88l2.24-1.12 3.13-.76h2.25l2.38 1.5 3.37 2.76 3.25 1.62 2.25 3h3l2.63 2.12 3.87 1.63 1.5 1.87 2.13 2 3.62-.62 2.62 2.25h3.5l5.88-.92 3.38 1.92 4.5-1.92 2.5-3.45 2.24-.88 6.38-1.25 4.38.25 4.24 2 1.88 3.33 3.12 3.05 2.26 1.12 2.74 2.5 2.13 3.88.87 3-2.62 1.62 1.38 2.12-.13 2.76-3.13 1-1.12 2.37h-9.12l-.76-2.13-2.74 1-1.63 2.5-2.75 3.63-1.38 2.25-3.24.88h-2.26l-.24 2.62 1.62 3.25 1.38 4.75v4.12l-2.13 1.26-1.63-3-2.5-3.13-2.74 2.63-.13 3.5.25 3.87-1.25 3.75-2.5-2.5-2.87-1.25-3.63-1.37-6.13-.26-1.87-3-1-2.5.25-5.62-.62-4-4.63-2.88-4.13-.87-1.87-2-1.87-3-2.76.63-.37 3.24.13 3-.38 3.7-2.12 2.56-4.38 1.24-3.25-.12-.25-3.68h-3.12l-1.38-2.44-3.75-3-4.35-1.76-5.52-2.5-4.26-.62-3.62-1.5-3-1.12-1.62 1.06-4.94-1.06-2.32-3.07-5.93-1.56-5.31-5.19-3.69-2.06-5.63.06-2.75-1.31h-3.75l-1.75-1.63-1.87-3.93-10.44-3.07-3.5-1.79v-3l-5.67-.83h-5.66l-7-4.83zm476.21 329.08-2.75 3.25.54 2.17 1.96 2.21 2.37.62 1.67-.67.5-2.75-.92-2.12-1.29-.63v-1.7l-1.54-.38zm48.62 40.5v4.583l2.166 2.334 2.084 1.833 1.333 2.833 1.083 1.417 3.334.917 3.166.5 3.584 1.25 2.75 1.416h2.333l2.167-1.416 3.333-.167 2.25-1.5 4-.167 3.083 1 2.667 2.25h3.167l1 1.75h2.833v-2.5l.833-3.666-1.833-1.917s-2-2.25-2.083-1.917-2.08-.5-2.084-.5l-1.333-2.583-2.917.417-1.333.583-4.25.417-2.917-.417-2.166-1.167-2.667-2.25-2.167.584-2.666.666-2.584-.916-4-1.167-2.666-1.833-3.75-1.417h-3zm-65.33-44.92.66-9.33-3.66-3.67-2.67-3v-3.5l1.67-2.83 3.33-4 .33-2.5 2.67-1.83h3.17l4-3.67 2.16-2.83v-2.84l3.17-.83 3.83-3 2.34-5.67 3.5-3.5v-3l1.5-3v-1.5l3.83-1.16 2.33 1.16 3.34 1.17.83 2.5 2 2 1.17 4v2.33l1.83.84 1.67 3.16 1.83 3.67 2.5 1.67 2.83 2.33 1.17 3v1.83l2 2.5-1.17 3.5-1.66 3.67-3.5 3.83-.84 3.5-2.16 2.84v2.16l-.67 4.17-1.5 2-1.17 2.83-3.66-.33-3.17-.83-3.33-.67-2.84-1.5-2.83 1.5-1 1.83-3.67-1-1.83 2h-10.33l-1.34.67h-4z"/>
   <path d="m809.5 344.17 4.5 1.16 4.33 2.5 5.17 3.34 3.5 3.33 6 5.33 3.67 3.84 8.5 8.5 3.5 4.33 8 6.5 4.5 3.33 2.83 1.67 3.5 3 5 3.33 4.67 2.17 2.83 4.33 5.17 3.5 3.16 3.84 3.17 4h4.83l2.84 3.16 3 .84 1.83 2.5 2.5 4.16-.83 8-2.17 5.34-3.5 4.5-1.67 3.5-1.83 4.16-3 1.67-1.17 3.33-1.66 3.67-3.67 3.83-4.5 4.17-2.67 4.17v5.33l.34 5.17-2.67 4-3.17 1.83h-6.5l-4.16-1.83-5.67-1.29-4.33-2.38-3.34-2.67-4.16-.16-2 3.33 1.66 3.33 1 2.67-.33 3.33-3.5 5.67-2.33 3.33-.84 4-.66 4 .16 5-1.66 2.5-3.5-.83-2.59.83-2.75 1.5h-5.33l-3.83-2.66-4.34-1-2-3.84-2.66-2.83-2.67-5.33-3-4.34-1-4.33-1.5-3-1.83-2.83-3.34-1.84-1.33-3.66-2.67-2.67-2.83-1.17-3.83-1.83-3.34-1.67 1.17-2.83 1.5-2 .67-4.17v-2.16l2.16-2.84.84-3.5 3.5-3.83 1.66-3.67 1.17-3.5-2-2.5v-1.83l-1.17-3-2.83-2.33-2.5-1.67-1.83-3.67-1.67-3.16-1.83-.84v-2.33l-1.17-4-2-2-.83-2.5v-3.83l-1.55-1.67-.37-.79 1.13-1.42.83-1.37-.71-2.25.29-2.13 1.54-1.12 2.88-1.04 4.62.08 1.17.71 2.46-.54 1.29-1.38 1.17-2 1.04-1.96.42-4.41 2.5-2.5 4.37-2.26 2.13-.62 1.12-2.38-1.62-3.74-.13-2.76-.25-4.12-2-3.38-.62-3.37-1.38-4.13h-1.88v-1.12l1.76-1.25 2.24-1.25 1.13-2 .06-2.5 1.13-1.88 4.06-3.12zm-167.5 70.83 2.25-3.12 1.06-4.38 1.63-4.06 1.5-7.19 2.06-2.5 2-2.94 2.38-1.06.81-1.81 1.37-2.19v-1.75l1.13-1.94 3.5-2.25 2.37-2.06 1 1.75v1.75l-.56 1.37-.69 3.19 1.25 4.57 1.56.74 1.5-.43v3.93l1 1.76.94 1.37.32 3.31-.38 3.75 1.12 1.5-.37 1.81-1.5 1.82-.31 1.75 1.56 1.93 1.5 2.76.75 1.5h2.13l.87 3.37-.75 2.63 2 1.24 2.5 2.26 1.5 2v6.24l2.12 2.88.76 2.75 2.74 2.08h2l1.63-3.33 3.37-2 2.13-3.17 1.87-.95.63-4-.87-1.5 1.62-1.88v-2.88l1.25-1.62 2.63-.88 3.37-1 2.87-1.12v-3.5l1.63-2 2.25-2.38 1.38-1.5 1.87 2.55v6.21l2.13-.13 1.74 1v2h2.38l2.62 1.37 1.38 1.88 1.62 1.62 1.5 2 2.38.5 5 .26h9.88v4l-1.5 1.95-.5 2.55.12 4.24v1.55l-2.67 1.83-.33 2.5-3.33 4-1.67 2.83v3.5l2.67 3 3.66 3.67-.66 9.33h-3.79l-4.82-2.33-5.06-.38-3.44-1.31-3.62-1.31-1.44-2.25-2.19-4.06-5.93-.5-1.44 1.25-5.5.62-4.82.25-1.43 1-3.75-1.31-2.63-.81-.25 3.43-1.87.88h-4.13l-1.81.88-3.63-1.19-11.5.75-1.24.37-4.26.69-2.68.62-2.75 1-4.5 1.07-1.86-2.02v-8.17l.84-4.67-6.5-.33-6.34-2-3.33-2-2.17-3-.16-3.67.5-4.16 2.66-5.5 1.84-2.67.66-2.33-2-1.84.17-4.66.67-4.34 1.66-3zm-221 82.5 8-.83h3.67l4.5-1.34 4.16-2 .75-3.25-.41-9.08 1.5-3.58 1.91-2.5 1-5.67-1.25-1.75.17-3.08 3.17-1.25.58-3.25 1.92-1.67 4.66-.5 2.17-1.83h2.5l4.08-2.34 3.75-.5 1.59-2 2.33-3.5 2.08-1.16 3.5 1.5 3.34 2.08 2.66 1.75 2.42 2.17 1.5 1.91v2.25l.58 1.42 1.5.42 2.42.91.58 2 2.25.75 2 1.92.5 1.92-1.75 3.16-2.91.34-2.75 1.5-.92 1.5 1.83 1.66.42 2.25 1.17 1.75 2.08.17h1.75l.08 3.83 1 2.17 1.17 2.42 1.92 1.33 1.16 2.25 1.42.92 1.17 2.58v2.25h3.58l.92 1.25.75 5.08-1.25 1.92-.92 2.58h-5.08l-3.67 1.25-3.75.5-1.83-1.16-2-1-2.42-.75-3.67.16-2.5 1.92h-4l-1.83.83-2.5-1.16h-6.67l-3.33-1.25h-3.25l-3.5 1.58-2.75.83-2.83 2.25-3.25 1.84-4.34 1.25-3.66 1.5-3.59-.34-2-.16h-3.75l-2.08-.92-2.67-.92-.41-1.83 2.33-2.92.67 2 2.25.5 2-.58 1.83-.08 1.5-1.09-1.25-1.5-3.5-.91-2.25-2.92-1.5-1.92-3.08-1.41-1.92-.5-.75-1.59z"/>
   <path d="m473.83 446.42-.91-2.17-1.67-2.58-2.08-2.42-.67-2.25.58-3.25 1.25-2.42.84-3.58v-2.67l-.67-4.5-1.67-3.58.09-3 .66-1.83 1.17-1.75 1.42-2.42.58-3 .67-3.33.41-1.59 1.09-1.75-2.09-2.41-3.16-.67-1.75-1.33-1.92-1.84-2.5-1.41-2.08-.5h-4.09l-2.33-1.42-2.42-1.42-3-.41h-5l-2.33.41-.83-1.75-1.25-2.5-1.42-1.33h-2.42l-1.5.75-.83 1.5v1.5l1 1.5v2.08l-1 1.84-2.08.91-1.84 1.09-.66 1.75-3 2.83-1.92 1.42-2.42 1.75v1.91l.75.34-.16 2.08-1.92 1.08-3.83-.58-2.67-.33-2.58-1.42-1.25.42-6 2v2.83l1.91 1 .5 2.33.17 3.67.33 1.83-1.83 5.17v2l1.33 2.67 4.5 2 3.5 1.83.67 3.33.67 3 1 1.5 2.16.67h3.84l1.83 2.83 3.33.34 2.5 1.66 2.34 2.5 3.16 1.5h4.67v2.5l-1.33 2.5 1.83 1.84.17 2.66 1.83 3.98.31 2.07 1.19.04 3.17-1.25.58-3.25 1.92-1.67 4.66-.5 2.17-1.83h2.5l4.08-2.34 3.75-.5 1.59-2 2.33-3.5zm-3.21-269.54 4.38 4.5 4.62 3.87 4.63 3.5 6 2 5.25.87h8l2.62 2.88 7.13 2.5h5.75l4.62-1.12 5.38-1.38 2.62-1.38 1.13 5.76-1.13 3.87-2.24 3.75-3.63 1.5-5.5 3.25-6 1.13h-6l-1.25 2.62.88 3.5-.5 1.25h-13.38l-3.5-2.75h-2.12v-3.88l-2.38-1.5-3.88-1.37-3.87 2.13-2 4-.25 2.12-3.12.62-2.26-1.74-3.5-1.38-2.37-1.25-2.75-3.75-2.12 2.75-.63 2.37-2.25 3.63-1.88 2.87.88 2.88 1.88 2.62.12 4.5 1.5.63-.12 3.63-1.63 1.5-1 5.12-1.63 2.38v3.24l-1.62 3.76-1.12 3.12-.63 2.88-2.37 1.5v4.74h-3.38l-2.25.88v-4.88l2-2.24-2-1.13-1.75-1-1.5-.75h-2l-2.88 1.38-9.87-.76-2.63-1.12-4.74-2.88 2.24-3.24 2.38-1.5 2.25-.63v-3l-1.37-2 .12-3.5 1.62-2.75 1.26-3.25v-5.13l2.74-2.62 3.5-.25.88-4-.25-2.25 1.25-3.75-.25-3.87.13-3.5 2.74-2.63 2.5 3.13 1.63 3 2.13-1.26v-4.12l-1.38-4.75-1.62-3.25.24-2.62h2.26l3.24-.88 1.38-2.25 2.75-3.63 1.63-2.5 2.74-1 .76 2.13h9.12l1.12-2.37 3.13-1 .13-2.76-1.38-2.12z"/>
   <path d="m531.62 193.12 3.88-4.45 2.17-2.34 5.33-1.5h10.25l.75-1.08h4.08l1.42 1.5 2.42 1.5 1.16.75v2.5l2.42 1.08 2.08.25 3.17 1.79 1.83 2.96 1.5 3.59v3.75l-1 2.25-1 1.16v3.67l-1.66 2.83-.42 2.25 2.5 2.92 1.58 2 1.42.94 1.5 2.31v6.17l-.83 2.16.25 5.59 2.41 5.16 1.75 4 1.84 4.42 1.58 3.92 2.25 2.5 1.42.75.91 2.5 3.34 3.91 2.58 2.75 2.5 2.5 3.58 1.59 2.09 1.25v13.41l-3.42 1.34-1.67 2.58-2.08 1.92h-3.17l-2.91-2.67-6-.33-4.59-3.92-5.66-.33-2.92-2.75-3.1-.5-1.4-2.09-.92.59-1.66.91-2.42-1.33-4.08-3-6.92-.5-2.5-1.42-2.17-.58.17-2.25.75-4.17-.33-3.66-5.5-.42-2.17-1.91-4.75-1.26-3-1.41-2.92-.59 1.67-2.83 1-3.33 1.42-3.17 1-2.41.33-3.5-3.5-3.42-3.92-.75-1.5 1.41-3.75.25v-2.87l1.09-1.79 1.25-2.42.5-3-1.5-3.25-.75-1.75-1.09-2.83-2.33-1-3.42-.92-5.08-.08-1.37-1.17.5-1.25-.88-3.5 1.25-2.62h6l6-1.13 5.5-3.25 3.63-1.5 2.24-3.75 1.13-3.87z"/>
   <path d="m602.67 272.92 3.667 2.208 2.833.333 3.542-.167 4.875-1.542 4.875-1.625 5.917-1.5 3.416.333 4.709-.333 1.5-.958 2.166-2 3-2.333 5.334-1h9l5 .833 5.333.167 2.833 1.333 3.5-1.167 1.834 1.333 3.333 1.167 2.833.667 3.667 1.229 2.333 2.771 2.5.667 1.834-1.167.666-2.271 2.334-2.396 3.5-3.167 2.666-1.667h3.334l1.333-1.5 2.333-1.167 1.5-2v-2.833h2.334l1.666 1.167 2.5 1v2.5l-2.166 2.667-2 2-1.834 2.667-1.833 2.834-.833 2.167 1.333 1.167 3.667.167 2.666-1.167 3.167-.833 4.5-.333 1.833-1.5 2.334-.167 1.666 1.167.667 3.833-.667 2.833-2.666 2.5-2.834 2-3.333 2.333-2.667 2.5-.5 2.167-.166 3.334-1.834 3.666-4.166 2.166h-4.834l-5.666-2.167-4.5-1.833-3.5-.833h-2l-3.5 1h-8l-2.667.167-1.5 1.167h-2l-1-1.167-2.167.5-1.333-1.167-3.167-1.5-3.333-.667-2.833-.5h-4.667l-3.333-.833-4.834-.333-5-.167-3-.833h-2.666l-3.167-1.333-3-.333-1.333 1.5-.334 2.332-1 4.167 1.667 2.833-1.333 2.833-.5 2.833-.334 3.334-1 2.167.167 2.5-1.5 3.167 1 2.833 2.5 1.333h3.667l1.833 2 .167 2.833-1.5 6-1.834 4.667-1.166 2.833-2.334 1.167-2.166-2.667-3.334-1.833-3.5-2.5-2.166-2.167-3-2-.167-5.833-1.667-2.833-2.333-1.5s.167-3.5.167-4-2.33-2.17-2.334-2.167l-2-2.667-1-2.167.667-1.833 1.667.167 1.166 1h2.834l2.166-2.167 2.5-2.333 2.667-3.333 2.667-2.333 1.833-1 1.833-.667-1-3-4.833-2-3.167-.167-4.833-1.5-4.833-.167-1.334-.499z"/>
   <path d="m631 319 3.96.17 3.5-1.34 2.83-1.33 1.96.79 4.13 1.63 3.37-.42 2.04-.88 4.71 1.55 4.21-.42 3.5 2.25 1.75-.67 1.5-2.91-.63-3.04h7.42l2.79 1.33 1.04 2.41 1.42 4.38 3.75 2.5h3.5l3.02 1.25h5.98l4.25 2.75 2.75 1.5 2 1.75h9.75l3.25 1.5 4 1.5h1.75l-.96 3.75-.16 1.79.37 2.21 1.58 2.67 1.71 1.71 5.29 3.87 3.17 1.33 1.33 2.25-2.83 1.75-6.58.42-4.42-2.75-3.58-2.08-7-.17-1.34-2.58-2.91-2.09-3.84-.75-4.33.5-4.92 3.09-.91 2.5-.25 2.16.16 3.84-1 2.08-.5 2.08 3.92 2.09 4.33 1.33.92 5.5 3.92.33 2 1.92 1.21 4.88 2.12 1.37 2.5 1.37 3 2.38 1 3 2.62 4.25.38 3.5.12 4.63-1.24 1.87h-4.63l-.13 3.5v2.87l-.24 2-3.63 3.88-1.63 2v3.5l-8.87 3-1.25 1.62v2.88l-1.62 1.88.87 1.5-.63 4-1.87.95-2.13 3.17-3.37 2-1.63 3.33h-2l-2.74-2.08-.76-2.75-2.12-2.88v-6.24l-1.5-2-2.5-2.26-2-1.24.75-2.63-.87-3.37h-2.13l-.75-1.5-1.5-2.76-1.56-1.93.31-1.75 1.5-1.82.37-1.81-1.12-1.5.38-3.75-.32-3.31-.94-1.37-1-1.76v-3.93l-1.5.43-1.56-.74-1.25-4.57.69-3.19.56-1.37v-1.75l-1-1.75 3.56-1 2.5-2.13 2.5-1.93.88-1.44 3.38-.25.74-1.62.5-2.94 1-.69 3 .06 1.32-1.25.48-2.87-1.86-.88-2.94.88-3.18.25-1.13-1h-1.62l-1.38.68-1.75.07-1.94-2.13-1.87-2-2.37-1.62-2.94-1.44-2.06-2-2.07-2.12-1.37-1.76-1.82.26-.37 1.5-1.31-.26-2.56-1.87-2.57-2.13-3.56-2.37-3.5-2.31-3.81-2-3.82-.94-3.47-.25-2.48.25 2.33-1.17 3-7.5 1.5-6-.17-2.83z"/>
   <path d="m724.5 335.25 2.33-.54 2.63-.83 1.08 2.83.79 1.54 1.29-.42.92-1.41v-4.54l-1.25-1.71.25-1.67h-2.5l1.67-.88 1.41-.62 1.38.92 1.54 2.12.58 1.5 1.05 2.21.83 1.46 2.92.08 1.2 1.54 2.84 2.17 1.21.96h14.45l.88-.96-.46-2.79-1.29-1.42.13-1.31h1.33l1.87.44 2.92.08v-2.33l2.83-.17 1.5-1.83 1.84 1 2.5-.5 2.83.16 2.67.67 3.5 2.48 2.5 1.52 3 2 3.66 1.5h4.34l4.33 1.46 3.17 1.21 3.66 1.33.67 1.67-2.5 2.83-4.06 3.12-1.13 1.88-.06 2.5-1.13 2-2.24 1.25-1.76 1.25v1.12h1.88l1.38 4.13.62 3.37 2 3.38.38 6.88 1.62 3.74-1.12 2.38-2.13.62-4.37 2.26-2.5 2.5-.42 4.41-2.21 3.96-1.29 1.38-2.46.54-1.17-.71-4.62-.08-2.88 1.04-1.54 1.12-.29 2.13.71 2.25-.83 1.37-1.13 1.42.37.79 1.55 1.67v3.83l-3.34-1.17-2.33-1.16-3.83 1.16v1.5l-1.5 3v3l-3.5 3.5-2.34 5.67-3.83 3-3.17.83v2.84l-2.16 2.83-4 3.67h-3.17l-.12-5.79.5-2.55 1.5-1.95v-4h-9.88l-5-.26-2.38-.5-1.5-2-1.62-1.62-1.38-1.88-2.62-1.37h-2.38v-2l-1.74-1-2.13.13v-6.21l-1.87-2.55.24-2v-2.87l.13-3.5h4.63l1.24-1.87-.12-4.63-.38-3.5-2.62-4.25-1-3-3-2.38-2.5-1.37-2.12-1.37-1.21-4.88-2-1.92-3.92-.33-.92-5.5-4.33-1.33-3.92-2.09.5-2.08 1-2.08-.16-3.84.25-2.16.91-2.5 4.92-3.09 4.33-.5 3.84.75 2.91 2.09 1.34 2.58 7 .17 3.58 2.08 4.42 2.75 6.58-.42 2.83-1.75-1.33-2.25-3.17-1.33-5.29-3.87-1.71-1.71-1.58-2.67-.37-2.21.16-1.79zm-217.5 173.08h1.562l.604.792 1.396 1 1.438-.896h5l1-1.479.875-2.25.562-2 2.125-1.688 1.188-.938.562-2.125 1.5-1.875.5-1.5 1.5-1.312h2.062l2.312-3.25 1.625-2.562 1.375-2.938 1.625-2.875 1.688-3.75 2.375-2.062 2.625-2.562 1.188-2.188 1.063-1.875 1.938-1.125 1.479-1.375.021-4-.271-3.375-1.25-1.959h-4.667l-1.666-1.666-1.667-.834-1.5 1.334-1.706-.289-1.127-1.878-.271-.771.271-1.062v-4.834l-1-1.666-1.834-1.834h-4.833l-3.667-1.333.667-2.5-1-2.5-2.5-2.333-2.667-5.167-.166-2.667.666-2.833-.666-4.167 2.833-1.166v-2l-2.167-2.5-1.166-4.334v-3l-1.5-3.166-2.334-2.5.834-3 1.5-2.334-1.833-2.83-3.083-2.167-3-2.583-3.167-.584-.833-1.666-2.25-2.667-1.5-2.918-3.417-1.248-2.75 1.248-3.75 1.252-3.5 3.25-1.667 2.584 1.083 2.083.25 2.917s-1.17 2.75-1.333 2.75-2.75 2.33-2.75 2.333l-3.083.917-2.5-1.417-1.335-.086-1.083 1.75-.417 1.584-1.25 6.333-2.583 4.166-.666 1.833-.083 3 1.667 3.583.667 4.5v2.667l-.833 3.583-1.25 2.417-.585 3.25.667 2.25 2.083 2.416 1.667 2.584.917 2.167 3.5 1.5 6 3.833 2.417 2.167 1.5 1.916v2.25l.583 1.417 1.5.417 2.417.916.583 2 2.25.75 2 1.917.5 1.917-1.75 3.166-2.917.334-2.75 1.5-.917 1.5 1.833 1.666.417 2.25 1.167 1.75 2.083.167h1.75l.083 3.833 2.167 4.584 1.917 1.333 1.167 2.25 1.417.917 1.167 2.583v2.25h3.583l.917 1.25.75 5.083-1.25 1.917z"/>
   <path d="m496.25 380.5v-8.83l.46-.67h4.29l1.04-.88.21-2.29 2.5-1.83 2-1.17h2.96l2.29 1.55 1.58-.09 1.67-1.46 2.13.21 1.5 1.21 6.2-.04v-3.92l1-1.46 1.92.34.29 1.29 2.38-.08 1.79-1.34 1.58 1.38 4.84.58 2.37-2.17 2.37.55.76-1.88v-2.12l2.62-1.38h1.88v2.38l1.74 2.12 4.5.25 2.5-1.13 2-1.37.63-3.25 3-2.88 1.25-2.74 2.25-5.13v-3.25l-.87-3.75-.5-3.25 1.37-2.5 1.75-3.12 1.38-2.63 1.24-2h1.76l1 1.25.87.75 2.25-.37v-2.5l-1-.88.03-3.94 1.31-1.4h1.63l1.53 1.56 2.16.03 4.72-.19 3.71-.15 2.66-2.19 2.34-1.03 1.13-.25 4.28-.36 2.67 2.34 2.41.66 1.25.09 2.34 1.5 1.66 2.83.17 5.83 3 2 2.17 2.17 3.5 2.5 3.33 1.83 2.17 2.67 2.48-.25 3.47.25 3.82.94 3.81 2 3.5 2.31 3.56 2.37 2.57 2.13 2.56 1.87 1.31.26.37-1.5 1.82-.26 1.37 1.76 4.13 4.12 2.94 1.44 2.37 1.62 1.87 2 1.94 2.13 1.75-.07 1.38-.68h1.62l1.13 1 3.18-.25 2.94-.88 1.86.88-.48 2.87-1.32 1.25-3-.06-1 .69-.5 2.94-.74 1.62-3.38.25-.88 1.44-2.5 1.93-2.5 2.13-3.56 1-2.37 2.06-3.5 2.25-1.13 1.94v1.75l-1.37 2.19-.81 1.81-2.38 1.06-2 2.94-2.06 2.5-1.5 7.19-1.63 4.06-1.06 4.38-2.25 3.12-4.33-.33-3.67-1-3.83-1.84-3.25 1.17-3.25 2.08-3.15 1.54-2.94 1.13-8.41.25-2.83 1.42-2.92 2.91-.08 1.42-.67 2.17-2.67 3-3.08 2.41-2.58.17-.09-3.5-.17-3.33-1.33-2.34-3.37-.45-2-2.26.24-2.24-1.12-2.38-1.62-1.38-1.8-2.5-2.2-3.12-2.26-2.62-1.37-2.26h-3.63l-2.24 1-2.38 1.88-2.38-.75-2.87-1.5h-1.87l-1.76-.75-1.37-1 .25 2.25-.12 2-1.88.87-3.38 3.38-2.37 1.5h-3.37l-2.26 1.5-2.12-.12-3-.76-1-1.62-2.5-1.88-3.75-1-3.63-.24-2.24-1.5-2.13-2.13-2.25-2-2.62-2.13-1.63-1.74-3.42-1.21-1.83-2.83-3.08-2.17-3-2.58-3.17-.59-.83-1.66-2.25-2.67-1.5-2.92zm-75.25 117 .58-2.08 1.84-2.34 2.16-2.16-.41-3.84-1.34-2.16 1.75-3.25v-2.5l-1-3-.5-5.34-4.08-3-2.92-2.08-1.58.83-1.83.5-2.5-2.25-5.34-.41-3.66-.42-2.75 2.83-3.67 1.5-.42 5 1.84 1.42-1 1.75-1.92 2.83-3.75 3-3.58.92-1.67-.58-1.58-.25-.92.58-5.17.25-1-1.67-2-.41-1.66 2.91h-2.59l-2.66-.58-3.75 1.33-1.84 3.25-.41 3.17-2.25 2.5-3.5 3.33-3 3-2.67 1.75-3.75 1.42-2.58 1.17h-4.42l1.5-3.04.31-2.57 1.69-3.43.81-1.76.07-1.93-2.07-2.5-1.93-3.44-.94-4.37-8.44-3.32-3.19-2.31-2.75-.75-1.62-3.25.81-3 3.75-.19.75-4.12 3.94-6 1.62-2.63v-3.81l-1.56-1.25h-10.13v-1.94l1.82-2.12.75-.75.25-2.5 1.56-1.38 1.94 1.06 1.62 1.88 1.63 1.25 2.87-.19 2.13-1.31.39-3.25-2.16-1.25-2.84-.83-2.58-1.67-3.33-1.25h-2.42l-2.83-1.08-3.67-1.34h-8.5l-2.58-1-2.34-1.83-2.16-3.17-1.75-2.91-1.25-4.92 7.33-.58 2.33-1.84 3.09-1 2.91-3.83 3.84-3.67 2.83-.75 2.75-1.42 1.25-2.91.58-4.33.34-4.5-.67-2.92.08-3.67 1.75-1.67 1.59-2 2.08.84 1.75 2.66 1.08 1.76.84.33 1.58-.09 1.5-1.66.92-2.17.91-2.83 1.25-1.92.25-5.25-.66-2.33-1.75-3.17-2-2.66.25-4.59-1.09-3.08 1.17-2.25 2.33-1.08 3.17-1 2.58-.84 2.5-2.83 2.75-1.08h2.92l.17-2.25-1.17-2.92-.33-1.33 3.25-.92 2.91-.58 1.84-3.34 1.58-2.91.87-1.92 2.46-1.75h3.92l.75 2.08 1.42 1.67-1.59 2.42-.25 2.41 1.25 1.5 1.75 2.75-.08 3.59-1.25 2.16-.42 4.34 1.09 3 .16 2.41 2.5 3.17.25 4.42 2.5 2.16 5.34 1 .42 1.92 1.33 2.5.91 2.75 1.26 1.5 1.5 3.17 2.74.16 2.5-1.08h2.5l1.42 1h2l1.67 1.33 1.33 1.67 1.75 2.75-.41 4.5.74 2.67.26 2.83-1.76 1.83-1.24 3.25.75.11 2.83.23v2.83l1.91 1 .5 2.33.17 3.67.33 1.83-1.83 5.17v2l1.33 2.67 4.5 2 3.5 1.83 1.34 6.33 1 1.5 2.16.67h3.84l1.83 2.83 3.33.34 2.5 1.66 2.34 2.5 3.16 1.5h4.67v2.5l-1.33 2.5 1.83 1.84.17 2.66 1.83 3.98.31 2.07 1.19.04-.17 3.08 1.25 1.75-1 5.67-1.91 2.5-1.5 3.58.41 9.08-.75 3.25-4.16 2-4.5 1.34h-3.67z"/>
  </g>
 </g>
 <g transform="translate(-116.97 -123.75)" fill="#bfbfbf" stroke="#fff" stroke-width=".5">
  <path d="m339.5 504.42-2-2.23-1.19-3.07-2-3.06-2-1.56-2.69-1.88-1.81-1.37-4.25-.56-.87-1.07h-3.88l-6.12 5.38-1.88 3-1.43 2.25v5.13l1.5 2 2.62 3.24-.31 4.82 1.69 1.56 1.87 5 2.25 2.92-1 3.83-.75 6-5 7.75-2.87 5-4.38 5-2.75 2.5v4l-5.25 4.75-3 6-4.5 5.75-4.25 5.5-5 5.75-5 3.5-2.92.91-1.5-5-1.66-4.16-2-2.67v-2.67l-6 .67-3.5-1.33-3.67-1-5-.34-2.17-3.83 2-2.83-3.66-2.17-4.84-1.17-1.16-3 1.83-2 .33-4.5 5.17-6.83 3.5-.33.5-7.17-2.83-2.33.33-2.67 3.33-.67 1.34-1.33-3-2.83-6.17-2.17-3.33-2.5-3-2 2.75.59 1.16-3.75 3-1.75 3.42.58 5.17 1.75 3-1.17 1.58-.83-4.5-10.42-4.25-7.58-.42-4 2.25-3.25 2.5-2.67 1.92-.91 2.5 2 5.25 3.58 4.33.67 4.34 2.5 3.5 1 5.33-3.67 1.5-3.17 2-5.33 3-2h4.79v-1.42l-.58-2.33-1.96-1.71.58-5.37 1.55-1.59.29-2.37 2.21-1.46 3-1.29 3.41-.25 1.5-1.96.29-2.67-.41-.96.95-.95h3.59l1.41-1.17 2-1.5 2.92-.67h1.92l1.58-1.54.17-2 2.21-.5.62-1 2.29-.29 1.29-.62v-2.13h10.13l1.56 1.25v3.81l-5.56 8.63-.75 4.12-3.75.19-.81 3 1.62 3.25 2.75.75 3.19 2.31 8.44 3.32.94 4.37 1.93 3.44 2.07 2.5-.07 1.93-2.5 5.19-.31 2.57z"/>
  <path d="m212.38 411 2.5 1.34h2.5l2.5.91 2.24.87 2.26 2.76h2.12l1.38 1.12h5.37l3-1.62 1.63.87 2.62 1.96 3.25 1.41h4.87l2.26 1.13v2.25l2.74 1.62 4.13.76 3.75-1.63 4-4.25 2-1.81 2.25.52 2.75 1.17 2.38.74 6-.24 2.87-.76 2.75-1.43 2.5-1.94h1.52v2.46h2.73l1.63-.52h1.37l2.42 1.56 1.25 4.92 3.91 6.08 2.34 1.83 2.58 1h8.5l6.5 2.42h2.42l3.33 1.25 2.58 1.67 2.84.83 2.16 1.25-.39 3.25-2.13 1.31-2.87.19-1.63-1.25-1.62-1.88-1.94-1.06-1.56 1.38-.25 2.5-2.57 2.87v4.07l-1.29.62-2.29.29-.62 1-2.21.5-.17 2-1.58 1.54h-1.92l-2.92.67-3.41 2.67h-3.59l-.95.95.41.96-.29 2.67-1.5 1.96-3.41.25-3 1.29-2.21 1.46-.29 2.37-1.55 1.59-.58 5.37 1.96 1.71.58 2.33v1.42h-4.79l-1.67-3.17-4.5-1.5-3-2.66-1.66-3.5-1-5.17-7.34-6.5-4.83 3-14.67 7-4.16.83-1.34-4.16-2.33-4-4.17-2.67h-2.75l-3.58-.83-1.17-3.83-1-6.17-3.83-3-11.33-3.83-8.5-3.34-3.67-3.83-.33-2.5 1.83-6.17 4.83-10.16 1.5-4.84 1.67-3.16zm221.62-27-1.92-2.67-1.29-2.21-1.67-3.08-1.79-1.83 1.09-4.09.96-2.62-.71-1.71-1.34-3.41-1.58-3.26-1.75-2.5.62-2.74 2.38-1.76 2-3.62 2.25-1.25.63-3.87 2.12-3.5 3.12-2.26 1.38-2.5v-7.87l-1.38-3.37-1-4.76-1.5-2.74-.74-1.38 2.12-2 3.67-1.75h1.58l3.63 3.5h2.24l2.76-1.25 3.5-1.62 1.5-2.26.87-2.12h2.13l1.87 1.38 1.37 1.5 1.38 1.24v3l.88 2.63 2 2.25 2.37 1.62.75 3.5 2 1.38v2.88l.88 5.12 1.37 2.62 3.13.38 3.24 1.62.88 3.26 1.25 3 4.75 1.62 1 3.75 4.75 1.13 3.37 2.24 1.13 3 2.37 1.88 1.5 3.5 1.38 2.62.83 1.71-.08 1.5-.21 2.29-1.04.88h-4.29l-.46.67v8.83l-2.75 1.25-3.75 1.25-3.5 3.25-1.67 2.59 1.09 2.08.25 2.92-1.34 2.75-2.75 2.33-3.08.92-2.5-1.42-1.33-.09-2.09-2.41-3.16-.67-1.75-1.33-1.92-1.84-2.5-1.41-2.08-.5h-4.09l-4.75-2.84-3-.41h-5l-2.33.41-2.08-4.25-1.42-1.33h-2.42l-1.5.75zm17.75-125.12 3 2.58v1.62l1.5 2.46.29 2.5 3.71 4.21.83 2.17-.5 5.25.5 3.5 1.75 1.66h9l.67-1.16-1.08-2.75-1.34-1.84.59-1.66.33-3.17 1.92-1.67 2.64-1.66.44-2.84v-3.41l1.17-4.5 1.5-4.5 1.16-6.25 3.17-2.84 3-3.5 1.92-2.75 2-1.66v-2.84l-1.67-2.5-.42-2.91.09-2.42 2-1 2 .92 2.66-.25 1.92-2.5.5-3 .08-2.42h-3.08l-3.5-2.75h-2.12v-3.88l-2.38-1.5-3.88-1.37-3.87 2.13-2 4-.25 2.12-3.12.62-2.26-1.74-3.5-1.38-2.37-1.25-2.75-3.75-2.12 2.75-.63 2.37-4.13 6.5.88 2.88 1.88 2.62.12 4.5 1.5.63-.12 3.63-1.63 1.5-1 5.12-1.63 2.38v3.24l-1.62 3.76-1.12 3.12zm-183.08 35.29 2.33.75 1.92-.75 2.75.75 2.58.75 4.42-.75h2.25l3.66-1.34v-2.83l-.91-4.25-1.5-3.5-1-3-3.67-.92-.92-2.08.5-2.25 1.42-1.42 1.5-1.25-.33-4.58 1.08-4.5-2.42-.83.42-1.84 1.58-2.75h3.5l.34-5.16 2.83-3 3.25-1.34h3.67l1.5 1.92 2.33.08 1.92-.83 2.83-2.33 3.92-1.5 1.16-3.34 2.34-.91 2.25-.59 1.33-.75v-6.25l-1.58-1.66.05-2.98-6.35-.63-5.5-1.56h-5.81l-1.06-6.63-1.08-2.43v-6.86h-3.5l-1.84-.66-2 1.5-1.66 4.16-2.17-.83-3.83-1-1.34-1.33-2.83-2.5-2.83-1.5-5-2.34-2.5.17-1.17 2.83-3.33-.33-2.67-1.33-3.17 1-3.66-1.17-3.5-.83-3.17 6h-2.5v4.16l-3.5 1.84-3.17 6.66v12.17l-1.83 4.33.67 3.34-1.73 3.95-1.56 2.32.87 2.44-1.63 3.68h-2.06l-2.37 1.13-1.5 2.37 2.75 2.13 1.39 2.81h2l5 2.33 3.34 2.34 1.33 4.66 3 3.17 2.83 2.5 2.34 1.83 3.33 1.17 3.5 2.83 3.17 2.84h3l3.33 1.66z"/>
  <path d="m470.5 326 1.56-.81 1.32-1.57.5-2.62.43-3.19 2.75-4.19.88-1.68.62-1.75.69-4.94 1-2.5 2.13-1.25 3.74.62 3.19-1 2.88-1.31 8.12.44 1.5 1.56 2.44 2.38 1.81-1.07 1.94-1.68 4.38-2.63h1.31l1.12 2.75 1.44 1 2.63-.94 3.87-.24 3.19-.44 3.37.56h2.25l3.19 1.62 2.5.76 1.75 1.12 1.12 2.5v2.75l.76 2.16 2.18 1.67 2.94 2.23 4.31.25 2.75-.44.32-3.31 2.24-.4 3.76-.35 1.5.35 3.62-.41 4.19 1 3.25 1.44.62 1.75v1.69l-1.12 1.31-1.32 1.69.26 1.81.74 1.06-1.24 2-1.38 2.63-1.75 3.12-1.37 2.5.5 3.25.87 3.75v3.25l-2.25 5.13-1.25 2.74-3 2.88-.63 3.25-2 1.37-2.5 1.13-4.5-.25-1.74-2.12v-2.38h-1.88l-2.62 1.38v2.12l-.76 1.88-2.37-.55-2.37 2.17-4.84-.58-1.58-1.38-1.79 1.34-2.38.08-.29-1.29-1.92-.34-1 1.46v3.92l-6.2.04-1.5-1.21-2.13-.21-1.67 1.46-1.58.09-2.29-1.55h-2.96l-2 1.17-2.5 1.83.08-1.5-2.21-4.33-1.5-3.5-2.37-1.88-1.13-3-3.37-2.24-4.75-1.13-1-3.75-4.75-1.62-1.25-3-.88-3.26-3.24-1.62-3.13-.38-1.37-2.62-.88-5.12zm-181.92-32.42 2.67-.27 3.06 2.36 1.69 1.14.69 2.69 1.87 1.5 3.06 1.06 2.07 2.5 3.56 2.25 1.37 3.57.76 2.24-1 1.5.24 2.63 2.76 2.5 3.12 1.25 6.25 1.62 2.25.88 2.38 2.12.62 2.76 1.75 1.24 4-1.12 2.75-.12 2.38.12 3.62-2 2.75-.12 1.13-1 1.87 1.12 3 1.81 2.69.63 3.31 2.37 1.69 2.19 2.44 2.75 1.72 2.2-3.27 5.97-2.91.58-3.25.92.33 1.33 1.17 2.92-.17 2.25h-2.92l-2.75 1.08-2.5 2.83-5.75 1.84-2.33 1.08-1.17 2.25 1.09 3.08-.25 4.59 2 2.66 1.75 3.17.66 2.33-.25 5.25-1.25 1.92-.91 2.83-.92 2.17-1.5 1.66-1.58.09-.84-.33-2.83-4.42-2.08-.84-1.59 2-1.75 1.67-.08 3.67.67 2.92-.34 4.5-.58 4.33-1.25 2.91-2.75 1.42-2.83.75-3.84 3.67-2.91 3.83-3.09 1-2.33 1.84-7.33.58-2.42-1.56h-1.37l-1.63.52h-2.73v-2.46h-1.52l-2.5 1.94-2.75 1.43-2.87.76-6 .24-2.38-.74-2.75-1.17-2.25-.52-2 1.81-4 4.25-3.75 1.63-4.13-.76-2.74-1.62v-2.25l-2.26-1.13h-4.87l-3.25-1.41-2.62-1.96-1.63-.87-3 1.62h-5.37l-1.38-1.12h-2.12l-2.26-2.76-4.74-1.78h-2.5l-2.5-1.34.46-2.62-.78-3.76 1.1-8.53-2.62-2.76-.33-2.21 2.37-2.66-.33-2.08-2.58-2.38-1.59-4.88-7.16-2.37 1.91-4.92.17-9-3.33-1-2.84-1.66.5-1.84 2.84-1.16 2.66-3 1.17-5.67-5.83-2.17 3-1.66 2.16-2.17 2.17-2.5 2.17-1.83 2.83-1.34 2.66-.66 1.84-3.67 6.67 1.5 3.83-1.5 2.33-2.33v-3.67l.84-5.17 1.83-1.83 1.67-2.33 1.5-4.5 2-1.34 2-2.33v-2.67l3.83-1h4l2 1.34 1.83 2h2.5l2-.67 3.17.83 1.83.84h3.17l1.5-1.34v-12.16h3.17l2-2 2.33.75 1.92-.75 5.33 1.5 4.42-.75h2.25z"/>
  <path d="m344.38 324.88 1.96-2.16.28-2.94.38-2.62-.81-1.13.81-1.78 1.56-1 3.66-.63 4.03.41 1.53 1.09 4.63-1.09 6.09.03 2.41-1.53 3.37-3.44 3.31-3.4 1.35-.81h5.12l1.47-1.19.97-2.5 3.72-.47 2.06-1.91 1.16-4.09.65-3.1.69-1.46 3.16.75 1.78 1.75 1.84 1.84 2.56.12 1.69-2-.62-2.06-.38-2.56.25-5.94-.25-5.75-2.69-1.43-3.18-1.07-2.19-1.43v-2.13l1.81-.69 4.25.63 1.69 1.43h2.44v-5.56l-1-1.44 1-1.74 2-2.57 2.31-.56 1.44-1.94 1-2.43 1.06-1.76h3.63l2.24-3.24 2.38-1.5 2.25-.63v-3l-1.37-2 .12-3.5 1.62-2.75 1.26-3.25v-5.13l2.74-2.62 3.5-.25.88-4-.25-2.25-2.5-2.5-6.5-2.62-6.13-.26-1.87-3-1-2.5.25-5.62-.62-4-4.63-2.88-4.13-.87-1.87-2-1.87-3-2.76.63-.37 3.24.13 3-.38 3.7-2.12 2.56-4.38 1.24-3.25-.12-.25-3.68h-3.12l-1.38-2.44-3.75-3-4.35-1.76-5.52-2.5-4.26-.62-3.62-1.5-3-1.12-1.62 1.06.87 3.44.87 5.24.82 2.57v3.69l-1.82 3.18-1.31 1.38-1.81-1.69-2.31-1.69-1.13 1.56-.37 2.38 1.19 2.69 2 1.37 3.06 1.38.31 4.62-1.81 1.75-1.63 3.25.94 3 1.56 2.44 2.81 1.56v3.06l-2.43-.18-2.75.12-2.38 2.19-2.18-1.13-2.76-2.06-4.24-.44h-3l-1.19 3.76-2.57.93-.43-2.31-1-1.88-2.81-.06-3.63 1.06-2.44.44-2.5-1.56-4.12-2.94-4.72-.12-.05 2.98 1.58 1.66v6.25l-1.33.75-2.25.59-2.34.91-1.16 3.34-3.92 1.5-2.83 2.33-1.92.83-2.33-.08-1.5-1.92h-3.67l-3.25 1.34-2.83 3-.34 5.16h-3.5l-1.58 2.75-.42 1.84 2.42.83-1.08 4.5.33 4.58-1.5 1.25-1.42 1.42-.5 2.25.92 2.08 3.67.92 1 3 1.5 3.5.91 4.25v2.83l2.67-.27 3.06 2.36 1.69 1.14.69 2.69 1.87 1.5 3.06 1.06 2.07 2.5 3.56 2.25 1.37 3.57.76 2.24-1 1.5.24 2.63 2.76 2.5 3.12 1.25 6.25 1.62 2.25.88 2.38 2.12.62 2.76 1.75 1.24 4-1.12 2.75-.12 2.38.12 3.62-2 2.75-.12z"/>
  <path d="m472.5 283.67 1.17.66.91 2v1.67l1.46 1.62 1.88.96 2.2 1.71.88 1.83 1.62 1.76 1.88.29 3.46 1.75.42 2.25.93.95-3.19 1-3.74-.62-2.13 1.25-1 2.5-.69 4.94-.62 1.75-.88 1.68-2.75 4.19-.43 3.19-.5 2.62-1.32 1.57-1.56.81-2-1.38-.75-3.5-2.37-1.62-2-2.25-.88-2.63v-3l-1.38-1.24-1.37-1.5-1.87-1.38h-2.13l-.87 2.12-1.5 2.26-6.26 2.87h-2.24l-3.63-3.5h-1.58l-3.67 1.75-2.12 2 2.24 4.12 1 4.76 1.38 3.37v7.87l-1.38 2.5-3.12 2.26-2.12 3.5-.63 3.87-2.25 1.25-2 3.62-2.38 1.76-.62 2.74 1.75 2.5 1.58 3.26 2.05 5.12-.96 2.62-1.09 4.09 1.79 1.83 1.67 3.08 1.29 2.21 1.92 2.67v1.5l1 1.5v2.08l-1 1.84-2.08.91-1.84 1.09-.66 1.75-3 2.83-1.92 1.42-2.42 1.75v1.91l.75.34-.16 2.08-1.92 1.08-6.5-.91-2.58-1.42-7.25 2.42-3.58-.34 1.24-3.25 1.76-1.83-.26-2.83-.74-2.67.41-4.5-1.75-2.75-1.33-1.67-1.67-1.33h-2l-1.42-1h-2.5l-2.5 1.08-2.74-.16-1.5-3.17-1.26-1.5-.91-2.75-1.33-2.5-.42-1.92-5.34-1-2.5-2.16-.25-4.42-2.5-3.17-.16-2.41-1.09-3 .42-4.34 1.25-2.16.08-3.59-1.75-2.75-1.25-1.5.25-2.41 1.59-2.42-1.42-1.67-.75-2.08h-3.92l-2.46 1.75-1.02 2.2-1.72-2.2-2.44-2.75-1.69-2.19-3.31-2.37-2.69-.63-4.87-2.93 1.96-2.16.66-5.56-.81-1.13.81-1.78 1.56-1 3.66-.63 4.03.41 1.53 1.09 4.63-1.09 6.09.03 2.41-1.53 3.37-3.44 3.31-3.4 1.35-.81h5.12l1.47-1.19.97-2.5 3.72-.47 2.06-1.91 1.16-4.09.65-3.1.69-1.46 3.16.75 1.78 1.75 1.78 1.78 2.62.18 1.69-2-.62-2.06-.38-2.56.25-5.94-.25-5.75-2.69-1.43-3.18-1.07-2.19-1.43v-2.13l1.81-.69 4.25.63 1.69 1.43h2.44v-5.56l-1-1.44 1-1.74 2-2.57 2.31-.56 1.44-1.94 1-2.43 1.06-1.76h3.63l4.74 2.88 2.63 1.12 9.87.76 2.88-1.38h2l1.5.75 3.75 2.13-2 2.24v4.88l2.25-.88h3.38v-4.74l2.37-1.5 3 2.58v1.62l1.5 2.46.29 2.5 3.71 4.21.83 2.17-.5 5.25.5 3.5 1.75 1.66h9z"/>
  <path d="m497.08 219.75h10.3l1.37 1.17 5.08.08 3.42.92 2.33 1 1.84 4.58 1.5 3.25-.5 3-1.25 2.42-1.09 1.79v2.87l3.75-.25 1.5-1.41 3.92.75 3.5 3.42-.33 3.5-2.42 5.58-1 3.33-1.67 2.83 2.92.59 3 1.41 4.75 1.26 2.17 1.91 5.5.42.33 3.66-.75 4.17-.17 2.25 2.17.58 2.5 1.42 6.92.5 4.08 3 2.42 1.33 1.66-.91.92-.59 1.4 2.09 3.1.5 2.92 2.75 5.66.33 4.59 3.92 6 .33 2.91 2.67h3.17l2.08-1.92 1.67-2.58 3.42-1.34 1.33.5 4.83.17 4.84 1.5 3.16.17 4.84 2 1 3-1.84.66-1.83 1-2.67 2.34-2.66 3.33-4.67 4.5h-2.83l-1.17-1-1.67-.17-.66 1.84 1 2.16 2 2.67 2.33 2.17-.17 4-1.25-.09-2.41-.66-2.67-2.34-4.28.36-1.13.25-2.34 1.03-2.66 2.19-8.43.34-2.16-.03-1.53-1.56h-1.63l-1.31 1.4-.03 3.94 1 .88v2.5l-2.25.37-.87-.75-1-1.25h-1.76l-.74-1.06-.26-1.81 2.44-3v-1.69l-.62-1.75-3.25-1.44-4.19-1-3.62.41-1.5-.35-3.76.35-2.24.4-.32 3.31-2.75.44-4.31-.25-5.12-3.9-.76-2.16v-2.75l-1.12-2.5-1.75-1.12-2.5-.76-3.19-1.62h-2.25l-3.37-.56-3.19.44-3.87.24-2.63.94-1.44-1-1.12-2.75h-1.31l-4.38 2.63-1.94 1.68-1.81 1.07-3.94-3.94-8.12-.44-2.88 1.31-.93-.95-.42-2.25-3.46-1.75-1.88-.29-1.62-1.76-.88-1.83-2.2-1.71-1.88-.96-1.46-1.62v-1.67l-.91-2-1.17-.66-1.08-2.75-1.34-1.84.59-1.66.33-3.17 1.92-1.67 2.64-1.66.44-2.84v-3.41l1.17-4.5 1.5-4.5 1.16-6.25 3.17-2.84 3-3.5 1.92-2.75 2-1.66v-2.84l-1.67-2.5-.42-2.91.09-2.42 2-1 2 .92 2.66-.25 1.92-2.5.5-3z"/>
 </g>
 <g font-family="Helvetica">
  <text transform="translate(427.22 319.67)" font-size="10">Santo Domingo</text>
  <text transform="translate(408.2 471.67)" font-size="14">Mar Caribe</text>
  <text transform="translate(466.11 16.42)" font-size="14">Océano Atlántico</text>
  <g font-size="10">
   <text transform="translate(695.03 311.08)">La Altagracia</text>
   <text transform="translate(624.41 333.41)">La Romana</text>
   <text transform="translate(531.41 326.79)">San Pedro de Macorís</text>
   <text transform="translate(450.72 254)">Monte Plata</text>
   <text transform="translate(554.2 276.09)">Hato Mayor</text>
   <text transform="translate(612.86 256.75)">El Seibo</text>
   <text transform="translate(599.91 371.04)">Isla Catalina</text>
   <text transform="translate(692.53 423.54)">Isla Saona</text>
   <text transform="translate(536.2 160.58)">Samaná</text>
   <text transform="translate(312.7 242.07)">Monseñor Nouel</text>
   <text transform="translate(272.74 205.37)">La Vega</text>
   <text transform="translate(408.2 165.08)">Duarte</text>
   <text transform="translate(334.78 119.67)">Hermanas
    <tspan x="0" y="12">Mirabal</tspan>
   </text>
   <text transform="translate(340.77 80.25)">Espaillat</text>
   <text transform="translate(228.77 134.25)">Santiago</text>
   <text transform="translate(141.44 242.07)">San Juan</text>
   <text transform="translate(68.03 204)">Elías Piña</text>
   <text transform="translate(127.78 116.29)">Santiago
    <tspan x="0" y="12">Rodríguez</tspan>
   </text>
   <text transform="translate(79.53 115.29)">Dajabón</text>
   <text transform="translate(108.72 48.75)">Montecristi</text>
   <text transform="translate(239.77 307.75)">Azua</text>
   <text transform="translate(137.11 319.58)">Baoruco</text>
   <text transform="translate(148.7 404.25)">Barahona</text>
   <text transform="translate(54.53 350.71)">Independencia</text>
   <text transform="translate(77.53 447.71)">Pedernales</text>
   <text transform="translate(73.53 549.71)">Isla Beata</text>
   <text transform="translate(244.13 47.5)">Puerto Plata</text>
   <text transform="translate(194.03 82.58)">Valverde</text>
   <text transform="translate(421.78 101.79)">María
    <tspan x="0" y="12">Trinidad</tspan>
    <tspan x="0" y="24">Sánchez</tspan>
   </text>
   <text transform="translate(375.65 319.58)">San
    <tspan x="0" y="12">Cristóbal</tspan>
   </text>
   <text transform="translate(336.65 357.92)">Peravia</text>
   <text transform="translate(310.03 295.46)">San José
    <tspan x="0" y="12">de Ocoa</tspan>
   </text>
   <text transform="translate(372.34 209.57)">Sánchez Ramírez</text>
  </g>
 </g>
</svg>
